<?xml version="1.0" standalone="no"?>
<!DOCTYPE svg PUBLIC "-//W3C//DTD SVG 20010904//EN"
 "http://www.w3.org/TR/2001/REC-SVG-20010904/DTD/svg10.dtd">
<svg version="1.0" xmlns="http://www.w3.org/2000/svg"
 width="1408.000000pt" height="1536.000000pt" viewBox="0 0 1408.000000 1536.000000"
 preserveAspectRatio="xMidYMid meet">
<metadata>
Created by potrace 1.16, written by Peter Selinger 2001-2019
</metadata>
<g transform="translate(0.000000,1536.000000) scale(0.100000,-0.100000)"
fill="#000000" stroke="none">
<path d="M5514 8957 c-40 -21 -44 -36 -44 -184 0 -137 1 -143 22 -154 32 -17
88 -13 104 8 10 13 13 55 14 149 0 116 -2 134 -20 156 -23 30 -50 39 -76 25z"/>
<path d="M11067 8953 c-36 -18 -48 -71 -46 -199 2 -127 12 -147 78 -147 64 0
70 15 71 169 0 116 -2 134 -20 156 -25 33 -50 39 -83 21z"/>
<path d="M5138 8775 c-2 -2 -68 -6 -148 -10 -80 -3 -161 -8 -180 -10 -19 -2
-107 -9 -195 -15 -408 -27 -465 -35 -465 -71 0 -38 14 -40 555 -84 39 -3 133
-8 210 -11 l140 -6 100 51 c55 28 107 57 116 63 21 18 39 52 39 78 0 20 -5 21
-85 19 -46 -1 -86 -3 -87 -4z"/>
<path d="M10628 8774 c-2 -1 -61 -5 -133 -8 -122 -6 -155 -9 -287 -21 -29 -2
-123 -9 -208 -15 -255 -18 -310 -32 -294 -73 3 -9 22 -21 43 -26 35 -9 82 -14
376 -35 55 -4 111 -9 125 -12 13 -2 99 -6 190 -10 l165 -7 93 46 c132 65 162
89 162 133 l0 35 -115 -2 c-63 -1 -116 -3 -117 -5z"/>
<path d="M6050 8750 c-47 -6 -191 -75 -246 -117 -38 -28 -48 -58 -28 -78 15
-15 105 -15 284 0 36 3 94 7 130 10 77 6 388 34 445 40 22 2 78 7 125 10 140
10 170 19 170 56 0 22 -8 27 -56 35 -22 3 -41 7 -44 9 -3 2 -66 6 -140 9 -74
4 -157 9 -185 11 -46 4 -273 15 -370 19 -22 1 -60 -1 -85 -4z"/>
<path d="M11569 8741 c-42 -14 -188 -94 -221 -122 -26 -21 -30 -30 -24 -53 l7
-28 127 6 c70 4 147 9 172 11 25 2 88 7 140 11 52 3 102 7 110 9 8 1 56 6 105
9 50 4 101 9 115 11 14 2 66 7 115 10 143 10 247 24 261 36 19 15 18 45 -2 53
-34 13 -147 26 -284 31 -80 4 -158 8 -175 10 -68 10 -422 14 -446 6z"/>
<path d="M7840 8408 c-159 -17 -259 -62 -398 -182 l-54 -46 -751 2 -751 3 -9
35 c-16 61 -75 130 -136 159 -49 23 -71 26 -186 29 -151 4 -213 -12 -277 -72
-86 -81 -98 -129 -98 -391 0 -295 29 -397 149 -527 52 -57 72 -71 116 -84 67
-19 153 -16 204 7 87 38 164 132 200 242 19 55 26 67 44 67 12 0 90 -13 172
-30 83 -16 269 -52 414 -81 146 -28 274 -53 285 -55 29 -7 206 -40 296 -56 45
-8 75 -18 75 -25 0 -7 -35 -50 -77 -96 -133 -144 -238 -300 -319 -474 -87
-187 -120 -286 -158 -483 -33 -166 -40 -226 -44 -361 -2 -115 10 -139 73 -139
65 0 75 23 85 190 12 211 64 459 125 595 9 22 21 51 25 65 13 44 101 213 145
280 134 204 343 413 393 394 16 -6 45 -38 146 -163 18 -23 52 -60 76 -84 l43
-42 11 -125 c19 -218 67 -336 187 -457 75 -75 107 -95 214 -134 60 -21 81 -23
255 -24 173 0 196 2 259 23 105 35 142 58 210 125 131 130 181 257 201 512 7
78 8 81 49 120 24 22 77 84 119 137 96 122 106 128 158 93 40 -26 135 -117
215 -205 96 -107 198 -288 289 -514 78 -194 113 -370 131 -649 5 -90 8 -99 32
-118 20 -15 36 -19 61 -15 58 9 63 24 57 181 -10 270 -95 606 -211 836 -81
159 -204 338 -312 454 -40 43 -71 81 -68 85 2 4 24 10 47 14 59 9 398 74 478
91 84 19 313 62 365 70 22 3 54 9 70 14 59 18 288 52 294 44 4 -4 19 -39 34
-78 73 -189 242 -285 407 -230 94 31 200 175 236 317 18 77 28 380 14 490 -11
92 -34 140 -93 195 -60 56 -122 73 -257 73 -122 0 -187 -16 -248 -60 -42 -30
-102 -120 -102 -152 0 -17 -43 -18 -753 -18 l-753 0 -34 35 c-47 48 -185 139
-240 158 -116 39 -145 41 -605 42 -247 0 -484 -3 -525 -7z m1021 -161 c60 -15
167 -68 208 -102 14 -11 47 -40 74 -65 l49 -45 829 0 c939 0 855 -9 868 88 14
103 70 137 222 137 109 0 137 -9 172 -56 16 -22 20 -50 23 -187 6 -220 -7
-322 -52 -414 -43 -90 -87 -127 -153 -129 -25 -1 -53 2 -61 6 -54 29 -112 123
-131 210 -22 101 -71 125 -214 104 -86 -13 -300 -53 -455 -85 -121 -25 -581
-115 -640 -125 -25 -4 -47 -8 -50 -9 -34 -8 -70 -15 -90 -19 -121 -22 -203
-36 -245 -41 -43 -6 -57 -14 -96 -54 -26 -27 -64 -75 -87 -107 -22 -32 -56
-76 -76 -96 l-37 -38 -595 0 -595 1 -39 39 c-22 22 -64 72 -94 113 -43 58
-116 136 -129 137 -1 0 -27 3 -57 6 -30 3 -86 12 -125 20 -70 15 -373 73 -515
99 -41 8 -129 25 -195 40 -263 56 -611 120 -702 128 -30 3 -53 -2 -80 -17 -33
-19 -41 -32 -64 -96 -50 -145 -94 -203 -164 -216 -74 -14 -144 38 -192 143
-36 77 -45 159 -41 371 3 187 3 191 28 218 14 14 39 33 57 40 40 17 194 18
243 1 47 -16 80 -68 80 -124 0 -32 6 -50 23 -67 l22 -22 836 0 836 1 62 57
c102 95 202 144 339 168 26 4 250 7 497 5 353 -3 462 -7 506 -18z m-29 -1242
c-6 -153 -64 -315 -138 -389 -82 -82 -167 -113 -329 -122 -195 -11 -320 23
-414 115 -48 46 -97 129 -119 201 -16 51 -33 253 -22 260 6 3 238 6 517 6
l508 -1 -3 -70z"/>
<path d="M8285 6900 c-63 -14 -99 -55 -110 -126 -8 -49 19 -101 65 -128 120
-71 260 55 199 180 -26 54 -94 87 -154 74z"/>
</g>
</svg>
