<?xml version="1.0" encoding="UTF-8"?>
<svg version="1.1" xmlns="http://www.w3.org/2000/svg" width="825" height="302">
<path d="M0 0 C1.85625 -0.01160156 1.85625 -0.01160156 3.75 -0.0234375 C7 0.375 7 0.375 8.68041992 1.64428711 C10.29215406 3.75817856 10.37429519 4.83072595 10.36328125 7.46484375 C10.36231445 8.64143555 10.36231445 8.64143555 10.36132812 9.84179688 C10.34521484 10.65712891 10.32910156 11.47246094 10.3125 12.3125 C10.31572266 13.12396484 10.31894531 13.93542969 10.32226562 14.77148438 C10.26695876 20.90049021 10.26695876 20.90049021 8.99801636 23.1559906 C7.76454352 25.89851862 7.75271226 27.93443994 7.75708008 30.93798828 C7.75400345 32.05239288 7.75092682 33.16679749 7.74775696 34.31497192 C7.75494247 35.51298431 7.76212799 36.7109967 7.76953125 37.9453125 C7.76998947 39.17788788 7.77044769 40.41046326 7.7709198 41.6803894 C7.77471333 44.95119114 7.78771211 48.22179792 7.80438232 51.49255371 C7.81785585 54.82446523 7.81465802 58.15634346 7.81445312 61.48828125 C7.8193678 64.01562701 7.8251959 66.5429712 7.83203125 69.0703125 C7.83314407 70.27237335 7.8342569 71.4744342 7.83540344 72.71292114 C7.84178329 73.82102142 7.84816315 74.9291217 7.85473633 76.07080078 C7.85854813 77.04912872 7.86235992 78.02745667 7.86628723 79.03543091 C7.84659911 81.39773931 7.84659911 81.39773931 9 83.375 C21.87 83.87 21.87 83.87 35 84.375 C35 82.395 35 80.415 35 78.375 C37.15924673 75.91963355 38.54437647 75.43607822 41.77734375 75.00268555 C42.82019531 75.0056665 43.86304688 75.00864746 44.9375 75.01171875 C46.65066406 75.01268555 46.65066406 75.01268555 48.3984375 75.01367188 C49.58695312 75.02978516 50.77546875 75.04589844 52 75.0625 C53.18851562 75.05927734 54.37703125 75.05605469 55.6015625 75.05273438 C65.54357039 75.11445113 65.54357039 75.11445113 69 77.375 C70.55880633 80.49261266 70.14427207 83.80376381 70.14044189 87.22605896 C70.14341302 88.04644514 70.14638414 88.86683131 70.1494453 89.71207768 C70.15815613 92.47660037 70.15964254 95.24107988 70.16113281 98.00561523 C70.16575924 99.98131402 70.17078365 101.9570119 70.17617798 103.93270874 C70.18931938 109.31071906 70.19575012 114.68871688 70.20018864 120.06674075 C70.20311605 123.42333632 70.20722018 126.77992845 70.21169281 130.13652229 C70.22537121 140.62889733 70.23503666 151.12126454 70.2388947 161.61364788 C70.24337897 173.74386569 70.26094254 185.87397102 70.2898953 198.00415462 C70.3114752 207.36892252 70.32159697 216.73365868 70.32293582 226.0984512 C70.32398634 231.69719801 70.32994655 237.29583913 70.34775543 242.89455986 C70.36417279 248.15828759 70.3664226 253.42182946 70.35761642 258.68557358 C70.35684269 260.62100152 70.36123277 262.5564392 70.37107468 264.49184227 C70.38369313 267.12710535 70.37797297 269.76170001 70.36749268 272.3969574 C70.37957728 273.55492416 70.37957728 273.55492416 70.39190602 274.7362842 C70.34391147 279.87016384 70.34391147 279.87016384 68.65499496 282.34936619 C66.05434937 283.9610388 63.75156717 283.76438246 60.72265625 283.7734375 C59.48708984 283.77730469 58.25152344 283.78117187 56.97851562 283.78515625 C55.04008789 283.76775391 55.04008789 283.76775391 53.0625 283.75 C51.12987305 283.76740234 51.12987305 283.76740234 49.15820312 283.78515625 C47.92134766 283.78128906 46.68449219 283.77742188 45.41015625 283.7734375 C43.71064819 283.76836182 43.71064819 283.76836182 41.97680664 283.76318359 C38.70832183 283.33696438 37.27459383 282.73952205 35 280.375 C35 279.385 35 278.395 35 277.375 C11.9 277.375 -11.2 277.375 -35 277.375 C-35.33 279.025 -35.66 280.675 -36 282.375 C-41.43905409 284.18801803 -47.30861809 283.60237025 -53 283.625 C-54.94519531 283.6559375 -54.94519531 283.6559375 -56.9296875 283.6875 C-58.16976563 283.69265625 -59.40984375 283.6978125 -60.6875 283.703125 C-62.39486328 283.71714355 -62.39486328 283.71714355 -64.13671875 283.73144531 C-67 283.375 -67 283.375 -68.83203125 282.04199219 C-71.49830713 278.23652987 -71.14309075 274.21708171 -71.13371277 269.77900696 C-71.13597833 268.99804616 -71.13824388 268.21708536 -71.14057809 267.41245908 C-71.14692451 264.78708347 -71.1460883 262.1617594 -71.14526367 259.53637695 C-71.14825484 257.65731235 -71.15165727 255.77824836 -71.15544128 253.89918518 C-71.16429169 248.78741518 -71.16661989 243.6756619 -71.16725707 238.56388497 C-71.16820581 234.29717811 -71.17188386 230.03047516 -71.17542917 225.76376981 C-71.18357835 215.69480612 -71.18601305 205.62585137 -71.18530273 195.55688477 C-71.18470241 185.17267099 -71.19524417 174.78850923 -71.2110464 164.40430862 C-71.22412876 155.48954471 -71.22948631 146.57479778 -71.22884732 137.66002434 C-71.22859246 132.33558493 -71.23143701 127.0111917 -71.24202538 121.68676186 C-71.25171756 116.67583172 -71.2517778 111.6649918 -71.24450874 106.65405846 C-71.24346417 104.81748701 -71.24581824 102.98090992 -71.2518692 101.14434814 C-71.25961041 98.63143042 -71.25493024 96.11882252 -71.24723816 93.60591125 C-71.25238172 92.88419827 -71.25752529 92.16248529 -71.26282471 91.41890222 C-71.22903755 86.40173596 -70.45895514 82.14253366 -69 77.375 C-66.07859593 74.92328023 -62.9957136 75.1177463 -59.28125 75.109375 C-58.18425781 75.10679688 -57.08726562 75.10421875 -55.95703125 75.1015625 C-54.81621094 75.10929687 -53.67539062 75.11703125 -52.5 75.125 C-51.35917969 75.11726563 -50.21835937 75.10953125 -49.04296875 75.1015625 C-47.94597656 75.10414062 -46.84898437 75.10671875 -45.71875 75.109375 C-44.71779297 75.11163086 -43.71683594 75.11388672 -42.68554688 75.11621094 C-38.19078947 75.54934211 -38.19078947 75.54934211 -36 77.375 C-35.505 80.84 -35.505 80.84 -35 84.375 C-26.42 84.375 -17.84 84.375 -9 84.375 C-7.97491123 81.29973368 -7.86731814 79.17916691 -7.85473633 75.95727539 C-7.84835648 74.84925064 -7.84197662 73.74122589 -7.83540344 72.59962463 C-7.83429062 71.40272507 -7.8331778 70.2058255 -7.83203125 68.97265625 C-7.82870285 67.74340927 -7.82537445 66.51416229 -7.82194519 65.24766541 C-7.81687877 62.64598973 -7.81453678 60.04430755 -7.81469727 57.44262695 C-7.8148189 53.45711773 -7.79435144 49.47179194 -7.77539062 45.48632812 C-7.7724567 42.96093845 -7.7704719 40.43554746 -7.76953125 37.91015625 C-7.76234573 36.71528091 -7.75516022 35.52040558 -7.74775696 34.2893219 C-7.7523719 32.62255653 -7.7523719 32.62255653 -7.75708008 30.92211914 C-7.75565506 29.94521622 -7.75423004 28.96831329 -7.75276184 27.96180725 C-8.00958188 25.27474653 -8.6912369 23.70257576 -10 21.375 C-10.40187718 18.36252863 -10.32455994 15.34919211 -10.3125 12.3125 C-10.32861328 11.49716797 -10.34472656 10.68183594 -10.36132812 9.84179688 C-10.36197266 9.05740234 -10.36261719 8.27300781 -10.36328125 7.46484375 C-10.36626221 6.75191162 -10.36924316 6.03897949 -10.37231445 5.30444336 C-9.29054988 -0.30157987 -4.86053759 -0.03037836 0 0 Z M-4 6.375 C-4.05384521 8.66641286 -4.09272087 10.95818188 -4.125 13.25 C-4.14820313 14.52617187 -4.17140625 15.80234375 -4.1953125 17.1171875 C-4.35641524 20.46093338 -4.35641524 20.46093338 -2 22.375 C-1.5859375 24.7578125 -1.5859375 24.7578125 -1.375 27.5 C-1.30023438 28.41007812 -1.22546875 29.32015625 -1.1484375 30.2578125 C-1.07496094 31.30582031 -1.07496094 31.30582031 -1 32.375 C3.36743242 23.9249677 5.61300402 15.75231283 3 6.375 C0.69 6.375 -1.62 6.375 -4 6.375 Z M-1 52.375 C-1 60.955 -1 69.535 -1 78.375 C-0.67 78.375 -0.34 78.375 0 78.375 C0.19613594 75.35450658 0.38214855 72.33394342 0.5625 69.3125 C0.61857422 68.46494141 0.67464844 67.61738281 0.73242188 66.74414062 C1.02040528 61.77162713 0.89796753 57.27723755 0 52.375 C-0.33 52.375 -0.66 52.375 -1 52.375 Z M-65 81.375 C-65.02312132 106.63491561 -65.04098043 131.89482868 -65.05181217 157.15475273 C-65.05697459 168.88263178 -65.06401625 180.61050415 -65.07543945 192.33837891 C-65.08538795 202.55706255 -65.09185383 212.77574136 -65.09408849 222.99442971 C-65.09539532 228.40813618 -65.0984794 233.82182881 -65.10573006 239.23553085 C-65.11249287 244.32599395 -65.11461642 249.41643744 -65.11310768 254.5069046 C-65.11338389 256.37985719 -65.11538747 258.25281041 -65.11920547 260.12575912 C-65.12414678 262.67369749 -65.12299664 265.2215608 -65.12025452 267.76950073 C-65.12316736 268.51851902 -65.1260802 269.26753731 -65.12908131 270.03925312 C-65.18173858 273.83310205 -65.18173858 273.83310205 -64 277.375 C-60.35418313 277.40387512 -56.70839537 277.42175585 -53.0625 277.4375 C-52.02158203 277.44587891 -50.98066406 277.45425781 -49.90820312 277.46289062 C-48.91884766 277.46611328 -47.92949219 277.46933594 -46.91015625 277.47265625 C-45.99371338 277.47789307 -45.07727051 277.48312988 -44.13305664 277.48852539 C-42.01636977 277.61421211 -42.01636977 277.61421211 -41 276.375 C-40.95907063 274.04202567 -40.95758277 271.70794775 -41 269.375 C-41.94875 268.941875 -42.8975 268.50875 -43.875 268.0625 C-47 266.375 -47 266.375 -49 263.375 C-49.26006222 261.1457386 -49.26006222 261.1457386 -49.27415466 258.49221802 C-49.28911736 256.982323 -49.28911736 256.982323 -49.30438232 255.44192505 C-49.305047 254.33847748 -49.30571167 253.23502991 -49.30639648 252.09814453 C-49.31888176 250.35389191 -49.31888176 250.35389191 -49.33161926 248.57440186 C-49.35577426 244.71883832 -49.364498 240.86344375 -49.37109375 237.0078125 C-49.37779142 235.00925181 -49.38449122 233.0106911 -49.39152867 231.01213157 C-49.41300361 224.72601696 -49.42233514 218.43995634 -49.42553711 212.15380859 C-49.42917232 205.67176655 -49.45906569 199.19019802 -49.50094169 192.70830071 C-49.5356447 187.14131267 -49.55108554 181.57448156 -49.55178314 176.00738609 C-49.552576 172.68318607 -49.56368307 169.3595777 -49.58978081 166.03546524 C-49.61658059 162.32677011 -49.61190234 158.61938645 -49.59936523 154.91064453 C-49.61419952 153.81124542 -49.62903381 152.71184631 -49.64431763 151.57913208 C-49.57245837 144.12919077 -49.57245837 144.12919077 -46.65003967 140.27902222 C-44.7909354 138.94327775 -42.90473777 137.64482518 -41 136.375 C-40.56133535 133.95374029 -40.56133535 133.95374029 -40.65942383 131.09912109 C-40.65965042 129.9981308 -40.65987701 128.8971405 -40.66011047 127.76278687 C-40.67559433 126.57005157 -40.69107819 125.37731628 -40.70703125 124.1484375 C-40.71127609 122.93048492 -40.71552094 121.71253235 -40.71989441 120.45767212 C-40.73673169 116.55489296 -40.77439405 112.65262396 -40.8125 108.75 C-40.82754026 106.10938244 -40.84122981 103.46875681 -40.85351562 100.828125 C-40.88410398 94.34339376 -40.94281881 87.85977012 -41 81.375 C-48.92 81.375 -56.84 81.375 -65 81.375 Z M41 81.375 C40.87660227 89.15285414 40.78575341 96.93014135 40.7253418 104.70874023 C40.70016406 107.35597658 40.66601978 110.00314319 40.62280273 112.65014648 C40.56229836 116.45053284 40.53382207 120.25000197 40.51171875 124.05078125 C40.48591232 125.23835526 40.4601059 126.42592926 40.43351746 127.64949036 C40.4331398 128.75040512 40.43276215 129.85131989 40.43237305 130.9855957 C40.42126999 131.95600296 40.41016693 132.92641022 40.39872742 133.92622375 C40.781679 136.59798083 40.781679 136.59798083 43.34797668 138.14933777 C46.01648501 139.44212923 46.01648501 139.44212923 49 140.375 C49.03115244 150.31248799 49.05116783 160.24997168 49.0625 170.1875 C49.06378403 171.30540609 49.06378403 171.30540609 49.06509399 172.44589615 C49.09680463 203.76495591 48.66445965 235.0628731 48 266.375 C44.535 267.365 44.535 267.365 41 268.375 C41 271.345 41 274.315 41 277.375 C48.59 277.375 56.18 277.375 64 277.375 C64.1557235 258.61193993 64.3039348 239.84883716 64.4429636 221.08564568 C64.50773627 212.36777365 64.57490871 203.64993387 64.64819336 194.93212891 C64.73262752 184.8480332 64.8106422 174.76390633 64.87890625 164.6796875 C64.88444787 163.86105948 64.88998948 163.04243147 64.89569902 162.19899654 C65.07378144 135.24112492 64.86136546 108.32253546 64 81.375 C56.41 81.375 48.82 81.375 41 81.375 Z M-3 86.375 C-4.37317088 87.52088101 -4.37317088 87.52088101 -4.11352539 90.60961914 C-4.11336631 92.04314126 -4.10767407 93.47666912 -4.09765625 94.91015625 C-4.0962413 95.66340683 -4.09482635 96.41665741 -4.09336853 97.19273376 C-4.08775376 99.6076956 -4.07519883 102.02256601 -4.0625 104.4375 C-4.0574869 106.07096221 -4.05292366 107.70442586 -4.04882812 109.33789062 C-4.03777954 113.35029585 -4.02050506 117.36263241 -4 121.375 C-1.36 121.375 1.28 121.375 4 121.375 C4 110.155 4 98.935 4 87.375 C0.20211302 86.25373219 0.20211302 86.25373219 -3 86.375 Z M-35 89.375 C-35 103.565 -35 117.755 -35 132.375 C-30.15206115 129.60474923 -25.97336956 126.97824513 -21.6015625 123.64453125 C-19 122.375 -19 122.375 -10 121.375 C-10 111.145 -10 100.915 -10 90.375 C-18.2265227 89.00391288 -26.66000266 89.375 -35 89.375 Z M10 89.375 C8.91034097 92.64397708 8.8707053 95.0647525 8.8671875 98.50390625 C8.86589844 99.70337891 8.86460937 100.90285156 8.86328125 102.13867188 C8.86714844 103.39228516 8.87101562 104.64589844 8.875 105.9375 C8.87113281 107.19498047 8.86726563 108.45246094 8.86328125 109.74804688 C8.86457031 110.94623047 8.86585938 112.14441406 8.8671875 113.37890625 C8.86831543 114.48049072 8.86944336 115.5820752 8.87060547 116.71704102 C8.81977403 119.3505428 8.81977403 119.3505428 10 121.375 C11.8253125 121.4059375 11.8253125 121.4059375 13.6875 121.4375 C20.17704416 121.93991632 24.86860759 125.84800608 30.05859375 129.44140625 C32.69186667 131.55810358 32.69186667 131.55810358 35 131.375 C35 117.845 35 104.315 35 90.375 C31.66487626 89.54121907 29.37555768 89.25685636 26.015625 89.27734375 C25.08105469 89.28056641 24.14648438 89.28378906 23.18359375 89.28710938 C22.21550781 89.29548828 21.24742187 89.30386719 20.25 89.3125 C18.77466797 89.31926758 18.77466797 89.31926758 17.26953125 89.32617188 C14.84629209 89.33793517 12.42317727 89.35437316 10 89.375 Z M-24 131.375 C-25.010625 132.15875 -26.02125 132.9425 -27.0625 133.75 C-32.96592276 138.86487563 -32.96592276 138.86487563 -35.60800171 145.86116028 C-35.59991486 147.14165756 -35.591828 148.42215485 -35.58349609 149.74145508 C-35.58583252 150.4527356 -35.58816895 151.16401611 -35.59057617 151.89685059 C-35.59218144 154.23017645 -35.55826942 156.56148866 -35.5234375 158.89453125 C-35.51664421 160.52023099 -35.51192434 162.1459406 -35.50918579 163.77165222 C-35.49853293 167.16861809 -35.47189447 170.56492157 -35.43212891 173.96166992 C-35.38106003 178.32438217 -35.3560817 182.68671547 -35.34119225 187.04968739 C-35.32643956 191.20635487 -35.30120311 195.36293268 -35.2734375 199.51953125 C-35.26852673 200.31609446 -35.26361595 201.11265766 -35.25855637 201.93335915 C-35.24235234 204.17417938 -35.21895367 206.41479316 -35.19287109 208.65551758 C-35.18001068 209.9320369 -35.16715027 211.20855621 -35.15390015 212.52375793 C-35.32380734 215.27384842 -35.32380734 215.27384842 -34 216.375 C-31.92468261 216.4797008 -29.84576828 216.51356253 -27.76782227 216.52026367 C-27.1173996 216.52362228 -26.46697693 216.5269809 -25.79684448 216.53044128 C-23.63667923 216.53997668 -21.47659127 216.54189569 -19.31640625 216.54296875 C-17.82046984 216.54617958 -16.32453376 216.54954351 -14.82859802 216.55305481 C-11.68870312 216.55905259 -8.54883577 216.56089405 -5.40893555 216.56030273 C-1.37908318 216.56020108 2.6505931 216.57385332 6.68040371 216.59107494 C9.77127397 216.60217603 12.86210142 216.60422253 15.95298958 216.60369301 C17.438992 216.60487599 18.92499543 216.60931546 20.41097832 216.61702538 C22.48692135 216.62678726 24.56247892 216.62396258 26.63842773 216.61791992 C28.4126133 216.62005745 28.4126133 216.62005745 30.22264099 216.62223816 C33.14093852 216.66181048 33.14093852 216.66181048 35 214.375 C35.29136164 212.39560859 35.29136164 212.39560859 35.22705078 210.10888672 C35.22689972 209.22812469 35.22674866 208.34736267 35.22659302 207.43991089 C35.21627045 206.48778717 35.20594788 205.53566345 35.1953125 204.5546875 C35.19106766 203.09399338 35.19106766 203.09399338 35.18673706 201.60379028 C35.17551913 198.48573651 35.1504117 195.36796732 35.125 192.25 C35.11497228 190.13932706 35.10584607 188.02864962 35.09765625 185.91796875 C35.07557458 180.73688165 35.04208129 175.55596115 35 170.375 C34.34 170.375 33.68 170.375 33 170.375 C33.00523682 171.01002441 33.01047363 171.64504883 33.01586914 172.29931641 C33.03676256 175.19953405 33.04969934 178.0997358 33.0625 181 C33.07087891 181.99902344 33.07925781 182.99804688 33.08789062 184.02734375 C33.1213412 194.12941883 33.1213412 194.12941883 32 198.375 C28.12937878 200.31031061 23.38277058 199.64692404 19.125 199.6875 C17.61486328 199.73100586 17.61486328 199.73100586 16.07421875 199.77539062 C15.10355469 199.78376953 14.13289063 199.79214844 13.1328125 199.80078125 C11.80080811 199.82265503 11.80080811 199.82265503 10.44189453 199.8449707 C7.0482961 199.19183363 5.95365057 198.22193345 4 195.375 C3.71982376 192.61024202 3.66696252 190.28755331 3.828125 187.546875 C3.86990875 186.42336639 3.86990875 186.42336639 3.91253662 185.27716064 C4.00568932 182.89184164 4.12743698 180.50897093 4.25 178.125 C4.31829725 176.50528696 4.38472518 174.88549395 4.44921875 173.265625 C4.61115919 169.30082994 4.79874966 165.33798631 5 161.375 C9.12494151 161.31715292 13.24977944 161.28145593 17.375 161.25 C18.550625 161.23324219 19.72625 161.21648437 20.9375 161.19921875 C22.61972656 161.18955078 22.61972656 161.18955078 24.3359375 161.1796875 C25.37282715 161.16921387 26.4097168 161.15874023 27.47802734 161.14794922 C30 161.375 30 161.375 32 163.375 C32.625 165.5 32.625 165.5 33 167.375 C33.66 167.375 34.32 167.375 35 167.375 C35.14547545 163.31287788 35.23413226 159.25142713 35.3125 155.1875 C35.35439453 154.03701172 35.39628906 152.88652344 35.43945312 151.70117188 C35.66994995 145.06018137 35.66994995 145.06018137 32.73828125 139.3359375 C31.83464844 138.68882812 30.93101562 138.04171875 30 137.375 C29.29617188 136.65957031 28.59234375 135.94414062 27.8671875 135.20703125 C27.20976562 134.54058594 26.55234375 133.87414062 25.875 133.1875 C25.21242188 132.51332031 24.54984375 131.83914062 23.8671875 131.14453125 C19.66540821 127.16251029 16.33693606 127.05489345 10.82421875 127.0390625 C10.02143997 127.0324057 9.21866119 127.0257489 8.39155579 127.01889038 C6.69278248 127.00876765 4.99396945 127.00407324 3.29516602 127.00439453 C0.70716993 127.00003315 -1.87910388 126.96374493 -4.46679688 126.92578125 C-6.11978586 126.91991046 -7.77278291 126.91594282 -9.42578125 126.9140625 C-10.19473221 126.89969147 -10.96368317 126.88532043 -11.75593567 126.87051392 C-16.97815001 126.91449455 -19.80416486 128.02589265 -24 131.375 Z M-42 143.375 C-43.20561184 144.35767859 -43.20561184 144.35767859 -43.09765625 146.22265625 C-43.08605469 146.95355469 -43.07445312 147.68445313 -43.0625 148.4375 C-43.041875 149.736875 -43.02125 151.03625 -43 152.375 C-42.67 152.375 -42.34 152.375 -42 152.375 C-41.67 149.405 -41.34 146.435 -41 143.375 C-41.33 143.375 -41.66 143.375 -42 143.375 Z M41 143.375 C40.99120064 144.7556237 40.99120064 144.7556237 40.98222351 146.16413879 C40.92435963 154.83118601 40.8523194 163.49797379 40.76428509 172.16476917 C40.71952572 176.62065135 40.68028207 181.07644092 40.65356445 185.5324707 C40.62758672 189.83147199 40.58722412 194.13011796 40.53681374 198.42889977 C40.52010745 200.07032546 40.50861664 201.71181266 40.50238609 203.35331154 C40.49278554 205.64973981 40.46477686 207.94525131 40.43237305 210.24145508 C40.42126999 211.54939529 40.41016693 212.85733551 40.39872742 214.20491028 C40 217.375 40 217.375 38.72297668 219.25834656 C34.93329186 221.71442425 31.10981353 221.50930198 26.69018555 221.53613281 C25.41173264 221.54574036 24.13327972 221.5553479 22.81608582 221.56524658 C21.42296528 221.57009516 20.02984267 221.57437384 18.63671875 221.578125 C17.20188903 221.58388169 15.76705932 221.58963936 14.33222961 221.59539795 C11.32540531 221.60589125 8.31860761 221.61174472 5.31176758 221.61523438 C1.47186068 221.62071329 -2.3676906 221.64473513 -6.20748615 221.67320633 C-9.17159531 221.69189433 -12.13561987 221.69704159 -15.09978294 221.69857025 C-16.51468028 221.70158382 -17.92957658 221.70956829 -19.34441566 221.72275543 C-33.37602077 221.84419597 -33.37602077 221.84419597 -39 218.375 C-41.40119059 214.77321412 -41.43771322 211.86633631 -41.625 207.6875 C-41.66367187 206.98560547 -41.70234375 206.28371094 -41.7421875 205.56054688 C-41.8362334 203.83245345 -41.9191968 202.10376325 -42 200.375 C-44.0314309 203.72885258 -44.18943931 206.17815703 -44.0625 210.0625 C-43.95513927 213.58673276 -44.03783397 216.93952256 -44.48828125 220.4296875 C-45.22040591 226.54829561 -45.14538978 232.65818365 -45.125 238.8125 C-45.12886719 239.97587891 -45.13273437 241.13925781 -45.13671875 242.33789062 C-45.29590862 252.41896722 -45.29590862 252.41896722 -44 262.375 C-40.8684164 263.9407918 -37.53110206 263.51337109 -34.09375 263.50439453 C-32.86918091 263.50702301 -32.86918091 263.50702301 -31.61987305 263.50970459 C-28.91322726 263.51411663 -26.20664648 263.51118738 -23.5 263.5078125 C-21.62434883 263.50848573 -19.74869775 263.50945591 -17.87304688 263.51071167 C-13.93879365 263.51218776 -10.0045631 263.51003691 -6.0703125 263.50537109 C-1.01930944 263.49967386 4.03164049 263.50295334 9.0826416 263.50894356 C12.95670983 263.51255154 16.83076539 263.51140949 20.70483398 263.50881577 C22.56762702 263.50814716 24.43042119 263.50897263 26.29321289 263.51129532 C28.89342305 263.51382571 31.49354633 263.50997574 34.09375 263.50439453 C35.25644409 263.50743088 35.25644409 263.50743088 36.44262695 263.51052856 C40.34952406 263.57267113 40.34952406 263.57267113 44 262.375 C44.02335789 250.23811441 44.04103292 238.10123432 44.05181217 225.96433067 C44.0569904 220.32630992 44.06399391 214.68830476 44.07543945 209.05029297 C44.08645095 203.59078446 44.09231473 198.13129077 44.09487724 192.671772 C44.09669909 190.60780225 44.10025489 188.54383314 44.10573006 186.47986984 C44.14149079 172.41639172 43.76707471 158.41809835 43 144.375 C42.01 143.88 42.01 143.88 41 143.375 Z M9 166.375 C8.90016942 168.36257028 8.86919247 170.3536752 8.8671875 172.34375 C8.86589844 173.55417969 8.86460937 174.76460937 8.86328125 176.01171875 C8.86714844 177.28660156 8.87101562 178.56148437 8.875 179.875 C8.87113281 181.14988281 8.86726563 182.42476562 8.86328125 183.73828125 C8.86457031 184.94871094 8.86585938 186.15914062 8.8671875 187.40625 C8.86831543 188.52580078 8.86944336 189.64535156 8.87060547 190.79882812 C8.70783632 193.30641802 8.70783632 193.30641802 10 194.375 C12.86267567 194.44825168 15.700719 194.46738205 18.5625 194.4375 C19.77196289 194.43073242 19.77196289 194.43073242 21.00585938 194.42382812 C23.00393756 194.41200518 25.00197783 194.39406914 27 194.375 C27.02465881 190.40569011 27.04284023 186.43640966 27.05493164 182.46704102 C27.05997057 181.11579614 27.06680177 179.76455674 27.07543945 178.41333008 C27.08752419 176.47479566 27.09269828 174.536222 27.09765625 172.59765625 C27.10289307 171.42984619 27.10812988 170.26203613 27.11352539 169.05883789 C27.30661495 166.45608449 27.30661495 166.45608449 26 165.375 C23.3226862 165.27518786 20.67695825 165.23620125 18 165.25 C17.24976563 165.24613281 16.49953125 165.24226562 15.7265625 165.23828125 C12.06393883 164.89824459 12.06393883 164.89824459 9 166.375 Z M-43 170.375 C-42 174.375 -42 174.375 -42 174.375 Z M-43 175.375 C-43 178.015 -43 180.655 -43 183.375 C-42.67 183.375 -42.34 183.375 -42 183.375 C-42 180.735 -42 178.095 -42 175.375 C-42.33 175.375 -42.66 175.375 -43 175.375 Z M-44 183.375 C-43.67 184.365 -43.34 185.355 -43 186.375 C-43 185.385 -43 184.395 -43 183.375 C-43.33 183.375 -43.66 183.375 -44 183.375 Z M-43 197.375 C-42 199.375 -42 199.375 -42 199.375 Z M-35 269.375 C-35 270.035 -35 270.695 -35 271.375 C-12.23 271.375 10.54 271.375 34 271.375 C33.505 269.89 33.505 269.89 33 268.375 C24.42921353 268.35185784 15.85844005 268.33407533 7.28763008 268.32318783 C3.30811588 268.31796311 -0.67137699 268.3108729 -4.65087891 268.29956055 C-8.48933243 268.28871709 -12.3277654 268.28272006 -16.16623306 268.28012276 C-17.63269499 268.27827115 -19.09915577 268.27465556 -20.56560898 268.26926994 C-22.61521612 268.26204017 -24.66473768 268.26100988 -26.71435547 268.26147461 C-27.88239716 268.259254 -29.05043884 268.25703339 -30.25387573 268.25474548 C-32.96256083 268.186424 -32.96256083 268.186424 -35 269.375 Z " fill="#B42C2A" transform="translate(421,0.625)"/>
<path d="M0 0 C1.85625 -0.01160156 1.85625 -0.01160156 3.75 -0.0234375 C7 0.375 7 0.375 8.68041992 1.64208984 C10.29757761 3.76578739 10.3742455 4.85435509 10.36328125 7.5 C10.36231445 8.68335938 10.36231445 8.68335938 10.36132812 9.890625 C10.34521484 10.71046875 10.32910156 11.5303125 10.3125 12.375 C10.31572266 13.19484375 10.31894531 14.0146875 10.32226562 14.859375 C10.26731366 20.9740295 10.26731366 20.9740295 8 24.375 C7.505 13.98 7.505 13.98 7 3.375 C5.35 3.045 3.7 2.715 2 2.375 C1.67 2.705 1.34 3.035 1 3.375 C2.32 4.035 3.64 4.695 5 5.375 C5.02684679 8.02090014 5.04676357 10.66653096 5.0625 13.3125 C5.07087891 14.06724609 5.07925781 14.82199219 5.08789062 15.59960938 C5.09652441 17.52494313 5.05224333 19.45035581 5 21.375 C4.505 21.87 4.505 21.87 4 22.375 C3.87655973 24.24596111 3.82207606 26.12150928 3.79467773 27.99633789 C3.77473251 29.19750748 3.75478729 30.39867706 3.73423767 31.63624573 C3.71752518 32.9435112 3.70081268 34.25077667 3.68359375 35.59765625 C3.66303042 36.94144847 3.64203412 38.28523412 3.62062073 39.62901306 C3.56533581 43.17174987 3.51595502 46.71454567 3.46777344 50.25738525 C3.41760513 53.8702115 3.36189475 57.48295172 3.30664062 61.09570312 C3.19898063 68.18872747 3.0975532 75.28182888 3 82.375 C2.34 82.375 1.68 82.375 1 82.375 C0.15808218 79.4501367 -0.11819313 76.86758344 -0.09765625 73.828125 C-0.09515869 73.06661133 -0.09266113 72.30509766 -0.09008789 71.52050781 C-0.08098389 70.56499023 -0.07187988 69.60947266 -0.0625 68.625 C-0.041875 65.5725 -0.02125 62.52 0 59.375 C-0.33 65.645 -0.66 71.915 -1 78.375 C-3.24685739 73.88128522 -3.24685739 73.88128522 -3.16015625 70.2265625 C-3.14263306 68.98652466 -3.14263306 68.98652466 -3.12475586 67.72143555 C-3.10421143 66.82336182 -3.08366699 65.92528809 -3.0625 65 C-2.9585221 56.02632222 -3.07904607 47.072403 -3.37130737 38.10394287 C-3.41546534 36.74206975 -3.45755658 35.38012807 -3.49758911 34.01812744 C-3.55442495 32.09916459 -3.61883816 30.18043068 -3.68359375 28.26171875 C-3.73858032 26.59435669 -3.73858032 26.59435669 -3.79467773 24.89331055 C-3.72138312 22.4378478 -3.72138312 22.4378478 -5 21.375 C-5.08631874 20.03232587 -5.10706473 18.68525678 -5.09765625 17.33984375 C-5.09443359 16.53095703 -5.09121094 15.72207031 -5.08789062 14.88867188 C-5.07532227 13.6134668 -5.07532227 13.6134668 -5.0625 12.3125 C-5.05798828 11.45849609 -5.05347656 10.60449219 -5.04882812 9.72460938 C-5.03700373 7.60804337 -5.01906769 5.49151315 -5 3.375 C-5.99 3.045 -6.98 2.715 -8 2.375 C-7.86181468 5.85451523 -7.71317399 9.33350495 -7.5625 12.8125 C-7.52318359 13.80572266 -7.48386719 14.79894531 -7.44335938 15.82226562 C-7.40146484 16.76650391 -7.35957031 17.71074219 -7.31640625 18.68359375 C-7.26141968 19.99541626 -7.26141968 19.99541626 -7.20532227 21.33374023 C-7.21818934 23.3677402 -7.21818934 23.3677402 -6 24.375 C-5.8957766 26.16404353 -5.86145922 27.95720338 -5.85473633 29.74926758 C-5.84835648 30.89748489 -5.84197662 32.04570221 -5.83540344 33.22871399 C-5.83429062 34.47968369 -5.8331778 35.73065338 -5.83203125 37.01953125 C-5.82703865 38.9342347 -5.82703865 38.9342347 -5.82194519 40.88761902 C-5.81686977 43.59544341 -5.81410593 46.30316753 -5.81469727 49.01098633 C-5.8147987 52.47791027 -5.80116935 55.94462853 -5.78392506 59.41150379 C-5.77011492 62.71834942 -5.77071567 66.02515714 -5.76953125 69.33203125 C-5.76234573 70.57692825 -5.75516022 71.82182526 -5.74775696 73.10444641 C-5.75083359 74.26212021 -5.75391022 75.41979401 -5.75708008 76.61254883 C-5.75565506 77.63101395 -5.75423004 78.64947906 -5.75276184 79.69880676 C-6 82.375 -6 82.375 -8 86.375 C-16.91 86.375 -25.82 86.375 -35 86.375 C-35 87.035 -35 87.695 -35 88.375 C-32.36 88.375 -29.72 88.375 -27 88.375 C-28.75 89.4375 -28.75 89.4375 -31 90.375 C-32.32 90.045 -33.64 89.715 -35 89.375 C-34.67 104.225 -34.34 119.075 -34 134.375 C-34.99 134.375 -35.98 134.375 -37 134.375 C-37 118.865 -37 103.355 -37 87.375 C-37.66 87.375 -38.32 87.375 -39 87.375 C-38.67 105.195 -38.34 123.015 -38 141.375 C-35.03 140.385 -35.03 140.385 -32 139.375 C-32.66 140.365 -33.32 141.355 -34 142.375 C-34.33076962 145.63215176 -34.33076962 145.63215176 -34.31884766 149.41674805 C-34.32889328 150.12919678 -34.3389389 150.84164551 -34.34928894 151.57568359 C-34.38016687 153.92935381 -34.39716862 156.28291005 -34.4140625 158.63671875 C-34.43277047 160.2691191 -34.4523436 161.90150974 -34.4727478 163.53388977 C-34.52411433 167.82954185 -34.56371577 172.1252253 -34.60089111 176.42102051 C-34.64090248 180.80484811 -34.69200788 185.18854471 -34.7421875 189.57226562 C-34.8390003 198.17308766 -34.92338785 206.77397443 -35 215.375 C-35.33 215.375 -35.66 215.375 -36 215.375 C-36.495 182.21 -36.495 182.21 -37 148.375 C-37.33 148.375 -37.66 148.375 -38 148.375 C-38.04646363 156.20749371 -38.08194021 164.03995475 -38.10362434 171.87255192 C-38.1140348 175.51005505 -38.12814357 179.14746347 -38.15087891 182.78491211 C-38.1727055 186.29920309 -38.1845892 189.81340331 -38.18975449 193.32775688 C-38.19521541 195.31237153 -38.21081255 197.29694998 -38.22659302 199.2815094 C-38.22734724 205.37642482 -38.12241532 210.63801954 -36 216.375 C-35.65864073 217.70630115 -35.32074044 219.03858148 -35 220.375 C-32.69 220.705 -30.38 221.035 -28 221.375 C-31.08382647 222.73188365 -32.27475805 222.28341398 -35.5625 221.1875 C-38.97592004 219.38769671 -40.09641198 218.59430327 -42 215.375 C-42.51171875 212.578125 -42.51171875 212.578125 -42.6875 209.625 C-42.75324219 208.64015625 -42.81898438 207.6553125 -42.88671875 206.640625 C-42.92410156 205.89296875 -42.96148437 205.1453125 -43 204.375 C-43 206.355 -43 208.335 -43 210.375 C-46.10582403 206.99307494 -46.36774925 204.66654247 -46.34057617 200.13769531 C-46.34034958 198.87669006 -46.34012299 197.61568481 -46.33988953 196.31646729 C-46.32457082 194.94534956 -46.30892285 193.57423548 -46.29296875 192.203125 C-46.28737086 190.79637098 -46.28310167 189.38961109 -46.28010559 187.98284912 C-46.26867185 184.28704576 -46.2392178 180.59159821 -46.20599365 176.89593506 C-46.17526077 173.12207858 -46.16159341 169.3481644 -46.14648438 165.57421875 C-46.11434629 158.17431727 -46.06316824 150.77470856 -46 143.375 C-46.66 143.375 -47.32 143.375 -48 143.375 C-48 147.995 -48 152.615 -48 157.375 C-48.66 157.045 -49.32 156.715 -50 156.375 C-50.10864945 154.31367858 -50.18588321 152.25068679 -50.25 150.1875 C-50.29640625 149.03894531 -50.3428125 147.89039063 -50.390625 146.70703125 C-49.91957823 142.68900228 -48.85652165 141.18657638 -46 138.375 C-44.02 137.385 -44.02 137.385 -42 136.375 C-41.67 118.225 -41.34 100.075 -41 81.375 C-47.27 81.375 -53.54 81.375 -60 81.375 C-60 81.045 -60 80.715 -60 80.375 C-56.39627603 80.17823855 -52.7920131 79.99418361 -49.1875 79.8125 C-47.65125977 79.72838867 -47.65125977 79.72838867 -46.08398438 79.64257812 C-45.10107422 79.59423828 -44.11816406 79.54589844 -43.10546875 79.49609375 C-41.74651489 79.42539673 -41.74651489 79.42539673 -40.36010742 79.35327148 C-38 79.375 -38 79.375 -35 80.375 C-35 81.695 -35 83.015 -35 84.375 C-26.42 84.375 -17.84 84.375 -9 84.375 C-7.97491123 81.29973368 -7.86731814 79.17916691 -7.85473633 75.95727539 C-7.84835648 74.84925064 -7.84197662 73.74122589 -7.83540344 72.59962463 C-7.83429062 71.40272507 -7.8331778 70.2058255 -7.83203125 68.97265625 C-7.82870285 67.74340927 -7.82537445 66.51416229 -7.82194519 65.24766541 C-7.81687877 62.64598973 -7.81453678 60.04430755 -7.81469727 57.44262695 C-7.8148189 53.45711773 -7.79435144 49.47179194 -7.77539062 45.48632812 C-7.7724567 42.96093845 -7.7704719 40.43554746 -7.76953125 37.91015625 C-7.76234573 36.71528091 -7.75516022 35.52040558 -7.74775696 34.2893219 C-7.7523719 32.62255653 -7.7523719 32.62255653 -7.75708008 30.92211914 C-7.75565506 29.94521622 -7.75423004 28.96831329 -7.75276184 27.96180725 C-8.00958188 25.27474653 -8.6912369 23.70257576 -10 21.375 C-10.40187718 18.36252863 -10.32455994 15.34919211 -10.3125 12.3125 C-10.32861328 11.49716797 -10.34472656 10.68183594 -10.36132812 9.84179688 C-10.36197266 9.05740234 -10.36261719 8.27300781 -10.36328125 7.46484375 C-10.36626221 6.75191162 -10.36924316 6.03897949 -10.37231445 5.30444336 C-9.29054988 -0.30157987 -4.86053759 -0.03037836 0 0 Z M-4 6.375 C-4.05384521 8.66641286 -4.09272087 10.95818188 -4.125 13.25 C-4.14820313 14.52617187 -4.17140625 15.80234375 -4.1953125 17.1171875 C-4.35641524 20.46093338 -4.35641524 20.46093338 -2 22.375 C-1.5859375 24.7578125 -1.5859375 24.7578125 -1.375 27.5 C-1.30023438 28.41007812 -1.22546875 29.32015625 -1.1484375 30.2578125 C-1.07496094 31.30582031 -1.07496094 31.30582031 -1 32.375 C3.36743242 23.9249677 5.61300402 15.75231283 3 6.375 C0.69 6.375 -1.62 6.375 -4 6.375 Z M-42 143.375 C-43.20561184 144.35767859 -43.20561184 144.35767859 -43.09765625 146.22265625 C-43.08605469 146.95355469 -43.07445312 147.68445313 -43.0625 148.4375 C-43.041875 149.736875 -43.02125 151.03625 -43 152.375 C-42.67 152.375 -42.34 152.375 -42 152.375 C-41.67 149.405 -41.34 146.435 -41 143.375 C-41.33 143.375 -41.66 143.375 -42 143.375 Z M-43 170.375 C-42 174.375 -42 174.375 -42 174.375 Z M-43 175.375 C-43 178.015 -43 180.655 -43 183.375 C-42.67 183.375 -42.34 183.375 -42 183.375 C-42 180.735 -42 178.095 -42 175.375 C-42.33 175.375 -42.66 175.375 -43 175.375 Z M-44 183.375 C-43.67 184.365 -43.34 185.355 -43 186.375 C-43 185.385 -43 184.395 -43 183.375 C-43.33 183.375 -43.66 183.375 -44 183.375 Z M-43 197.375 C-42 199.375 -42 199.375 -42 199.375 Z " fill="#AB2625" transform="translate(421,0.625)"/>
<path d="M0 0 C0.99 0.495 0.99 0.495 2 1 C1.99777939 1.69713104 1.99555878 2.39426208 1.99327087 3.11251831 C1.97325202 9.67529238 1.95801771 16.23805796 1.94818783 22.80085564 C1.94296435 26.17503026 1.93587639 29.54917971 1.92456055 32.92333984 C1.91247564 36.80046259 1.90676737 40.6775494 1.90234375 44.5546875 C1.89718246 45.76929657 1.89202118 46.98390564 1.88670349 48.23532104 C1.88662796 49.35633209 1.88655243 50.47734314 1.88647461 51.63232422 C1.884254 52.62271698 1.88203339 53.61310974 1.87974548 54.6335144 C1.84229846 57.01896773 1.84229846 57.01896773 3 59 C15.87 59.495 15.87 59.495 29 60 C29 58.02 29 56.04 29 54 C31.16335445 51.53663962 32.55114411 51.05982914 35.79321289 50.62768555 C37.36703735 50.63215698 37.36703735 50.63215698 38.97265625 50.63671875 C40.11927734 50.63736328 41.26589844 50.63800781 42.44726562 50.63867188 C43.64029297 50.65478516 44.83332031 50.67089844 46.0625 50.6875 C47.25939453 50.68427734 48.45628906 50.68105469 49.68945312 50.67773438 C58.59933258 50.73288838 58.59933258 50.73288838 62 53 C62 73 62 93 62 113 C61.67 113 61.34 113 61 113 C60.99576806 113.72575446 60.99153612 114.45150892 60.98717594 115.19925594 C60.8840115 132.83305489 60.77539537 150.46681174 60.66066074 168.10053921 C60.60530907 176.62796577 60.55182394 185.15539651 60.50268555 193.68286133 C60.45986746 201.11268882 60.41359557 208.54248525 60.36312145 215.97226483 C60.3365013 219.90871496 60.31164784 223.84515885 60.29092598 227.78164482 C60.2713897 231.48256345 60.24725516 235.18342288 60.21950912 238.88428879 C60.20562843 240.89868429 60.1966991 242.91311198 60.18788147 244.92753601 C60.17809265 246.1153064 60.16830383 247.30307678 60.15821838 248.52684021 C60.15176583 249.5657009 60.14531328 250.6045616 60.1386652 251.67490292 C60 254 60 254 59 255 C57.07332493 255.08748207 55.14348139 255.10697334 53.21484375 255.09765625 C52.04501953 255.09443359 50.87519531 255.09121094 49.66992188 255.08789062 C48.43822266 255.07951172 47.20652344 255.07113281 45.9375 255.0625 C44.08415039 255.05573242 44.08415039 255.05573242 42.19335938 255.04882812 C39.12888587 255.03699618 36.06443707 255.01906008 33 255 C33 250.38 33 245.76 33 241 C38 241 38 241 42 242 C42 200.75 42 159.5 42 117 C38.10846523 114.87345723 38.10846523 114.87345723 34 114 C34 96.51 34 79.02 34 61 C32.02 61.495 32.02 61.495 30 62 C25.29452212 62.22840262 20.58545538 62.18515182 15.875 62.1875 C13.92400391 62.20586914 13.92400391 62.20586914 11.93359375 62.22460938 C10.69480469 62.22654297 9.45601563 62.22847656 8.1796875 62.23046875 C7.04257324 62.23457764 5.90545898 62.23868652 4.73388672 62.24291992 C2 62 2 62 0 60 C-0.24050903 57.48165894 -0.24050903 57.48165894 -0.22705078 54.26513672 C-0.22689972 53.06404266 -0.22674866 51.86294861 -0.22659302 50.62545776 C-0.21627045 49.32335358 -0.20594788 48.02124939 -0.1953125 46.6796875 C-0.19158276 45.33733327 -0.18873561 43.99497633 -0.18673706 42.65261841 C-0.17909744 39.117986 -0.1594463 35.58351772 -0.1373291 32.0489502 C-0.11687765 28.4428123 -0.10773685 24.83664791 -0.09765625 21.23046875 C-0.0762006 14.15357865 -0.04206079 7.07680003 0 0 Z M35 57 C34.87660227 64.77785414 34.78575341 72.55514135 34.7253418 80.33374023 C34.70016406 82.98097658 34.66601978 85.62814319 34.62280273 88.27514648 C34.56229836 92.07553284 34.53382207 95.87500197 34.51171875 99.67578125 C34.48591232 100.86335526 34.4601059 102.05092926 34.43351746 103.27449036 C34.4331398 104.37540512 34.43276215 105.47631989 34.43237305 106.6105957 C34.42126999 107.58100296 34.41016693 108.55141022 34.39872742 109.55122375 C34.781679 112.22298083 34.781679 112.22298083 37.34797668 113.77433777 C40.01648501 115.06712923 40.01648501 115.06712923 43 116 C43.03115244 125.93748799 43.05116783 135.87497168 43.0625 145.8125 C43.06378403 146.93040609 43.06378403 146.93040609 43.06509399 148.07089615 C43.09680463 179.38995591 42.66445965 210.6878731 42 242 C38.535 242.99 38.535 242.99 35 244 C35 246.97 35 249.94 35 253 C42.59 253 50.18 253 58 253 C58.1557235 234.23693993 58.3039348 215.47383716 58.4429636 196.71064568 C58.50773627 187.99277365 58.57490871 179.27493387 58.64819336 170.55712891 C58.73262752 160.4730332 58.8106422 150.38890633 58.87890625 140.3046875 C58.88444787 139.48605948 58.88998948 138.66743147 58.89569902 137.82399654 C59.07378144 110.86612492 58.86136546 83.94753546 58 57 C50.41 57 42.82 57 35 57 Z " fill="#A62727" transform="translate(427,25)"/>
<path d="M0 0 C1.65 0 3.3 0 5 0 C6.55880633 3.11761266 6.14427207 6.42876381 6.14044189 9.85105896 C6.14341302 10.67144514 6.14638414 11.49183131 6.1494453 12.33707768 C6.15815613 15.10160037 6.15964254 17.86607988 6.16113281 20.63061523 C6.16575924 22.60631402 6.17078365 24.5820119 6.17617798 26.55770874 C6.18931938 31.93571906 6.19575012 37.31371688 6.20018864 42.69174075 C6.20311605 46.04833632 6.20722018 49.40492845 6.21169281 52.76152229 C6.22537121 63.25389733 6.23503666 73.74626454 6.2388947 84.23864788 C6.24337897 96.36886569 6.26094254 108.49897102 6.2898953 120.62915462 C6.3114752 129.99392252 6.32159697 139.35865868 6.32293582 148.7234512 C6.32398634 154.32219801 6.32994655 159.92083913 6.34775543 165.51955986 C6.36417279 170.78328759 6.3664226 176.04682946 6.35761642 181.31057358 C6.35684269 183.24600152 6.36123277 185.1814392 6.37107468 187.11684227 C6.38369313 189.75210535 6.37797297 192.38670001 6.36749268 195.0219574 C6.37554908 195.79393524 6.38360548 196.56591308 6.39190602 197.3612842 C6.34393286 202.49287574 6.34393286 202.49287574 4.65896225 204.97734165 C2.01526606 206.60703394 -0.34933604 206.3346244 -3.41796875 206.29296875 C-4.67158203 206.28330078 -5.92519531 206.27363281 -7.21679688 206.26367188 C-8.52712891 206.23853516 -9.83746094 206.21339844 -11.1875 206.1875 C-12.52277163 206.17244967 -13.85805937 206.15876187 -15.19335938 206.14648438 C-18.46264576 206.11107694 -21.73112093 206.0616889 -25 206 C-25 205.67 -25 205.34 -25 205 C-16.09 205 -7.18 205 2 205 C1.505 203.02 1.505 203.02 1 201 C0.92219012 198.98074358 0.90219206 196.95898891 0.91770935 194.93829346 C0.92474884 193.69591415 0.93178833 192.45353485 0.93904114 191.17350769 C0.95202271 189.79959016 0.9651028 188.42567356 0.97827148 187.05175781 C0.98841736 185.60291338 0.9981107 184.15406572 1.00738525 182.70521545 C1.03383532 178.77371502 1.06662113 174.84228985 1.10053515 170.91084766 C1.1349088 166.801574 1.16346859 162.69226006 1.19264221 158.58294678 C1.24876599 150.80215685 1.31012662 143.02141737 1.37336355 135.24068236 C1.44510463 126.38226296 1.51101553 117.52380318 1.57643402 108.66533518 C1.71113032 90.44350422 1.853157 72.22173692 2 54 C2.33 54 2.66 54 3 54 C3.07587179 46.63108899 3.12852436 39.26227814 3.16479492 31.89306641 C3.1799103 29.38456458 3.20040298 26.87608928 3.22631836 24.36767578 C3.26258042 20.76848818 3.27969874 17.169649 3.29296875 13.5703125 C3.30845261 12.44319855 3.32393646 11.31608459 3.33988953 10.15481567 C3.34011612 9.11388763 3.34034271 8.07295959 3.34057617 7.00048828 C3.34723801 6.08115509 3.35389984 5.1618219 3.36076355 4.21463013 C3.18218559 3.11838821 3.18218559 3.11838821 3 2 C2.01 1.34 1.02 0.68 0 0 Z " fill="#AA3232" transform="translate(485,78)"/>
<path d="M0 0 C1.85625 -0.01160156 1.85625 -0.01160156 3.75 -0.0234375 C7 0.375 7 0.375 8.68041992 1.64208984 C10.29757761 3.76578739 10.3742455 4.85435509 10.36328125 7.5 C10.36263672 8.28890625 10.36199219 9.0778125 10.36132812 9.890625 C10.34521484 10.71046875 10.32910156 11.5303125 10.3125 12.375 C10.31572266 13.19484375 10.31894531 14.0146875 10.32226562 14.859375 C10.26731366 20.9740295 10.26731366 20.9740295 8 24.375 C7.505 13.98 7.505 13.98 7 3.375 C4.525 2.88 4.525 2.88 2 2.375 C1.67 2.705 1.34 3.035 1 3.375 C2.32 4.035 3.64 4.695 5 5.375 C5.02684679 8.02090014 5.04676357 10.66653096 5.0625 13.3125 C5.07087891 14.06724609 5.07925781 14.82199219 5.08789062 15.59960938 C5.09652441 17.52494313 5.05224333 19.45035581 5 21.375 C4.505 21.87 4.505 21.87 4 22.375 C3.87655973 24.24596111 3.82207606 26.12150928 3.79467773 27.99633789 C3.77473251 29.19750748 3.75478729 30.39867706 3.73423767 31.63624573 C3.71752518 32.9435112 3.70081268 34.25077667 3.68359375 35.59765625 C3.66303042 36.94144847 3.64203412 38.28523412 3.62062073 39.62901306 C3.56533581 43.17174987 3.51595502 46.71454567 3.46777344 50.25738525 C3.41760513 53.8702115 3.36189475 57.48295172 3.30664062 61.09570312 C3.19898063 68.18872747 3.0975532 75.28182888 3 82.375 C2.34 82.375 1.68 82.375 1 82.375 C0.15808218 79.4501367 -0.11819313 76.86758344 -0.09765625 73.828125 C-0.09515869 73.06661133 -0.09266113 72.30509766 -0.09008789 71.52050781 C-0.08098389 70.56499023 -0.07187988 69.60947266 -0.0625 68.625 C-0.041875 65.5725 -0.02125 62.52 0 59.375 C-0.33 65.645 -0.66 71.915 -1 78.375 C-3.24685739 73.88128522 -3.24685739 73.88128522 -3.16015625 70.2265625 C-3.14847412 69.39987061 -3.13679199 68.57317871 -3.12475586 67.72143555 C-3.10421143 66.82336182 -3.08366699 65.92528809 -3.0625 65 C-2.9585221 56.02632222 -3.07904607 47.072403 -3.37130737 38.10394287 C-3.41546534 36.74206975 -3.45755658 35.38012807 -3.49758911 34.01812744 C-3.55442495 32.09916459 -3.61883816 30.18043068 -3.68359375 28.26171875 C-3.72025146 27.15014404 -3.75690918 26.03856934 -3.79467773 24.89331055 C-3.72138312 22.4378478 -3.72138312 22.4378478 -5 21.375 C-5.08631874 20.03232587 -5.10706473 18.68525678 -5.09765625 17.33984375 C-5.09443359 16.53095703 -5.09121094 15.72207031 -5.08789062 14.88867188 C-5.07951172 14.03853516 -5.07113281 13.18839844 -5.0625 12.3125 C-5.05798828 11.45849609 -5.05347656 10.60449219 -5.04882812 9.72460938 C-5.03700373 7.60804337 -5.01906769 5.49151315 -5 3.375 C-5.99 3.045 -6.98 2.715 -8 2.375 C-7.86181468 5.85451523 -7.71317399 9.33350495 -7.5625 12.8125 C-7.52318359 13.80572266 -7.48386719 14.79894531 -7.44335938 15.82226562 C-7.40146484 16.76650391 -7.35957031 17.71074219 -7.31640625 18.68359375 C-7.27974854 19.55814209 -7.24309082 20.43269043 -7.20532227 21.33374023 C-7.21818934 23.3677402 -7.21818934 23.3677402 -6 24.375 C-5.8957766 26.16404353 -5.86145922 27.95720338 -5.85473633 29.74926758 C-5.84835648 30.89748489 -5.84197662 32.04570221 -5.83540344 33.22871399 C-5.83429062 34.47968369 -5.8331778 35.73065338 -5.83203125 37.01953125 C-5.82870285 38.29600021 -5.82537445 39.57246918 -5.82194519 40.88761902 C-5.81686977 43.59544341 -5.81410593 46.30316753 -5.81469727 49.01098633 C-5.8147987 52.47791027 -5.80116935 55.94462853 -5.78392506 59.41150379 C-5.77011492 62.71834942 -5.77071567 66.02515714 -5.76953125 69.33203125 C-5.76234573 70.57692825 -5.75516022 71.82182526 -5.74775696 73.10444641 C-5.75083359 74.26212021 -5.75391022 75.41979401 -5.75708008 76.61254883 C-5.75565506 77.63101395 -5.75423004 78.64947906 -5.75276184 79.69880676 C-6 82.375 -6 82.375 -8 86.375 C-16.91 86.375 -25.82 86.375 -35 86.375 C-35 85.715 -35 85.055 -35 84.375 C-26.42 84.375 -17.84 84.375 -9 84.375 C-7.97491123 81.29973368 -7.86731814 79.17916691 -7.85473633 75.95727539 C-7.84835648 74.84925064 -7.84197662 73.74122589 -7.83540344 72.59962463 C-7.83429062 71.40272507 -7.8331778 70.2058255 -7.83203125 68.97265625 C-7.82870285 67.74340927 -7.82537445 66.51416229 -7.82194519 65.24766541 C-7.81687877 62.64598973 -7.81453678 60.04430755 -7.81469727 57.44262695 C-7.8148189 53.45711773 -7.79435144 49.47179194 -7.77539062 45.48632812 C-7.7724567 42.96093845 -7.7704719 40.43554746 -7.76953125 37.91015625 C-7.76234573 36.71528091 -7.75516022 35.52040558 -7.74775696 34.2893219 C-7.75083359 33.17814499 -7.75391022 32.06696808 -7.75708008 30.92211914 C-7.75565506 29.94521622 -7.75423004 28.96831329 -7.75276184 27.96180725 C-8.00958188 25.27474653 -8.6912369 23.70257576 -10 21.375 C-10.40187718 18.36252863 -10.32455994 15.34919211 -10.3125 12.3125 C-10.32861328 11.49716797 -10.34472656 10.68183594 -10.36132812 9.84179688 C-10.36197266 9.05740234 -10.36261719 8.27300781 -10.36328125 7.46484375 C-10.36626221 6.75191162 -10.36924316 6.03897949 -10.37231445 5.30444336 C-9.29054988 -0.30157987 -4.86053759 -0.03037836 0 0 Z M-4 6.375 C-4.05384521 8.66641286 -4.09272087 10.95818188 -4.125 13.25 C-4.14820313 14.52617187 -4.17140625 15.80234375 -4.1953125 17.1171875 C-4.35641524 20.46093338 -4.35641524 20.46093338 -2 22.375 C-1.5859375 24.7578125 -1.5859375 24.7578125 -1.375 27.5 C-1.30023438 28.41007812 -1.22546875 29.32015625 -1.1484375 30.2578125 C-1.07496094 31.30582031 -1.07496094 31.30582031 -1 32.375 C3.36743242 23.9249677 5.61300402 15.75231283 3 6.375 C0.69 6.375 -1.62 6.375 -4 6.375 Z " fill="#A0292A" transform="translate(421,0.625)"/>
<path d="M0 0 C0.33 0 0.66 0 1 0 C0.9969838 0.64257751 0.99396759 1.28515503 0.99085999 1.94720459 C0.96631154 8.63102675 0.9903573 15.31341728 1.04272461 21.99707031 C1.05587029 24.49182743 1.05659331 26.98668202 1.04467773 29.48144531 C1.02970336 33.06673728 1.05928948 36.6493064 1.09765625 40.234375 C1.08340103 41.35116638 1.06914581 42.46795776 1.05445862 43.61859131 C0.94500541 49.12533858 0.94500541 49.12533858 3.61837769 53.61535645 C5.73557477 54.91267229 5.73557477 54.91267229 9 56 C9.02469321 60.2358357 9.04285671 64.47163342 9.05493164 68.70751953 C9.05996474 70.1489332 9.06679173 71.59034176 9.07543945 73.03173828 C9.08754983 75.10190085 9.09323847 77.17199601 9.09765625 79.2421875 C9.10551147 81.11173096 9.10551147 81.11173096 9.11352539 83.01904297 C9 86 9 86 8 88 C7.34 88 6.68 88 6 88 C6 95.92 6 103.84 6 112 C5.34 112 4.68 112 4 112 C4.00523682 111.17612793 4.01047363 110.35225586 4.01586914 109.50341797 C4.10852959 92.63452476 3.98997853 75.84731317 3 59 C2.34 59 1.68 59 1 59 C0.96261719 59.61488281 0.92523438 60.22976562 0.88671875 60.86328125 C0.82097656 61.67152344 0.75523437 62.47976562 0.6875 63.3125 C0.62949219 64.11300781 0.57148438 64.91351563 0.51171875 65.73828125 C-0.08206694 68.36272334 -0.95780294 69.30820672 -3 71 C-3.10251672 65.87416389 -3.03590199 61.05002222 -2 56 C-1.01 56 -0.02 56 1 56 C-0.32 55.34 -1.64 54.68 -3 54 C-3 53.34 -3 52.68 -3 52 C-4.258125 51.95875 -5.51625 51.9175 -6.8125 51.875 C-9.01953125 51.62109375 -9.01953125 51.62109375 -11 51 C-13 47.9375 -13 47.9375 -14 45 C-9.13160991 43.86781626 -7.94554184 44.02178326 -3 46 C-2.67 39.4 -2.34 32.8 -2 26 C-1.34 26 -0.68 26 0 26 C0 17.42 0 8.84 0 0 Z " fill="#BE2222" transform="translate(460,86)"/>
<path d="M0 0 C2.31 0 4.62 0 7 0 C7.66 1.65 8.32 3.3 9 5 C9.53884575 4.02404877 9.53884575 4.02404877 10.08857727 3.02838135 C12 1 12 1 14.94230652 0.51898193 C16.14365738 0.52786438 17.34500824 0.53674683 18.58276367 0.54589844 C19.24644455 0.54531433 19.91012543 0.54473022 20.59391785 0.54412842 C22.78580181 0.54691337 24.97632266 0.57802125 27.16796875 0.609375 C28.68825029 0.61683601 30.20854146 0.62252961 31.72883606 0.62652588 C35.72889796 0.64179346 39.72837824 0.68108418 43.72821045 0.7253418 C47.81026338 0.76627073 51.89241037 0.78453176 55.97460938 0.8046875 C63.98333973 0.84757803 71.9915975 0.91584214 80 1 C80 1.33 80 1.66 80 2 C57.56 2.33 35.12 2.66 12 3 C12 3.66 12 4.32 12 5 C34.77 5 57.54 5 81 5 C81 5.33 81 5.66 81 6 C48.33 6.99 48.33 6.99 15 8 C15 8.33 15 8.66 15 9 C48.66 9.495 48.66 9.495 83 10 C82.67 11.32 82.34 12.64 82 14 C82 13.01 82 12.02 82 11 C58.9 11 35.8 11 12 11 C11.67 12.65 11.34 14.3 11 16 C7.64264863 17.11911712 5.11794614 17.11365586 1.58203125 17.09765625 C0.32841797 17.09443359 -0.92519531 17.09121094 -2.21679688 17.08789062 C-3.52712891 17.07951172 -4.83746094 17.07113281 -6.1875 17.0625 C-7.52278481 17.05748317 -8.85807141 17.05292059 -10.19335938 17.04882812 C-13.46228473 17.03702695 -16.73111991 17.02056297 -20 17 C-20 16.67 -20 16.34 -20 16 C-19.22809326 15.97494385 -18.45618652 15.9498877 -17.66088867 15.92407227 C-14.16958819 15.80815993 -10.67856078 15.68541176 -7.1875 15.5625 C-5.97255859 15.52318359 -4.75761719 15.48386719 -3.50585938 15.44335938 C-2.34248047 15.40146484 -1.17910156 15.35957031 0.01953125 15.31640625 C1.09307861 15.27974854 2.16662598 15.24309082 3.27270508 15.20532227 C6.09311553 15.10458153 6.09311553 15.10458153 9 14 C9 13.01 9 12.02 9 11 C8.34 11.66 7.68 12.32 7 13 C4.47802734 13.22705078 4.47802734 13.22705078 1.3359375 13.1953125 C0.21445312 13.18886719 -0.90703125 13.18242187 -2.0625 13.17578125 C-3.238125 13.15902344 -4.41375 13.14226562 -5.625 13.125 C-7.40003906 13.11146484 -7.40003906 13.11146484 -9.2109375 13.09765625 C-12.14082523 13.07402812 -15.0703134 13.04108514 -18 13 C-17.67 12.01 -17.34 11.02 -17 10 C-9.74 10 -2.48 10 5 10 C5 7.69 5 5.38 5 3 C3.35 2.34 1.7 1.68 0 1 C0 0.67 0 0.34 0 0 Z " fill="#9F2928" transform="translate(374,267)"/>
<path d="M0 0 C2 2 2 2 2.24888897 4.42973423 C2.24807182 5.97363284 2.24807182 5.97363284 2.24723816 7.54872131 C2.25143265 8.72800705 2.25562714 9.90729279 2.25994873 11.12231445 C2.25151947 13.07282715 2.25151947 13.07282715 2.24291992 15.06274414 C2.2439924 16.44071035 2.24593058 17.81867612 2.24867249 19.19664001 C2.25352898 22.94444743 2.24585552 26.69213618 2.23571944 30.43992925 C2.22695349 34.3552508 2.22869609 38.27056847 2.2290802 42.18589783 C2.22814299 48.76075229 2.21945083 55.33556066 2.20581055 61.91040039 C2.1900779 69.52213293 2.18481263 77.13381499 2.1855461 84.74556261 C2.18615552 92.05622185 2.18105836 99.36686457 2.17275429 106.67751884 C2.1692152 109.79433763 2.16739015 112.91115057 2.16686058 116.02797127 C2.16585924 119.69442544 2.1597798 123.3608369 2.14969444 127.02727699 C2.14535941 129.02258492 2.14594265 131.0179016 2.14663696 133.01321411 C2.14237198 134.18968002 2.13810699 135.36614594 2.13371277 136.57826233 C2.13203692 137.60715104 2.13036108 138.63603975 2.12863445 139.69610691 C2 142 2 142 1 143 C-0.92667507 143.08748207 -2.85651861 143.10697334 -4.78515625 143.09765625 C-5.95498047 143.09443359 -7.12480469 143.09121094 -8.33007812 143.08789062 C-9.56177734 143.07951172 -10.79347656 143.07113281 -12.0625 143.0625 C-13.91584961 143.05573242 -13.91584961 143.05573242 -15.80664062 143.04882812 C-18.87111413 143.03699618 -21.93556293 143.01906008 -25 143 C-25 138.38 -25 133.76 -25 129 C-19.375 129 -19.375 129 -16 131 C-18.31 131.33 -20.62 131.66 -23 132 C-23 134.97 -23 137.94 -23 141 C-15.41 141 -7.82 141 0 141 C0 94.47 0 47.94 0 0 Z " fill="#912325" transform="translate(485,137)"/>
<path d="M0 0 C0.66 0.33 1.32 0.66 2 1 C1.34 1.66 0.68 2.32 0 3 C-0.3333729 6.15776613 -0.3333729 6.15776613 -0.31884766 9.92822266 C-0.32889328 10.64052536 -0.3389389 11.35282806 -0.34928894 12.0867157 C-0.38022904 14.44582293 -0.39718577 16.80481615 -0.4140625 19.1640625 C-0.43276548 20.79789214 -0.45233823 22.43171203 -0.4727478 24.06552124 C-0.5241671 28.36940781 -0.56374018 32.67332573 -0.60089111 36.97735596 C-0.64086953 41.36779599 -0.6919899 45.75810452 -0.7421875 50.1484375 C-0.83906272 58.76553531 -0.92343015 67.38269797 -1 76 C-1.33 76 -1.66 76 -2 76 C-2.33 53.89 -2.66 31.78 -3 9 C-3.33 9 -3.66 9 -4 9 C-4.04646363 16.83249371 -4.08194021 24.66495475 -4.10362434 32.49755192 C-4.1140348 36.13505505 -4.12814357 39.77246347 -4.15087891 43.40991211 C-4.1727055 46.92420309 -4.1845892 50.43840331 -4.18975449 53.95275688 C-4.19521541 55.93737153 -4.21081255 57.92194998 -4.22659302 59.9065094 C-4.22734724 66.00142482 -4.12241532 71.26301954 -2 77 C-1.65864073 78.33130115 -1.32074044 79.66358148 -1 81 C1.31 81.33 3.62 81.66 6 82 C2.91617353 83.35688365 1.72524195 82.90841398 -1.5625 81.8125 C-4.96993617 80.01585184 -6.10623717 79.21957233 -8 76 C-8.43237305 73.34277344 -8.43237305 73.34277344 -8.51171875 70.359375 C-8.56489258 68.75449219 -8.56489258 68.75449219 -8.61914062 67.1171875 C-8.64169922 66.00601563 -8.66425781 64.89484375 -8.6875 63.75 C-8.72166016 62.62335938 -8.75582031 61.49671875 -8.79101562 60.3359375 C-8.87343014 57.55739099 -8.94260298 54.77915748 -9 52 C-9.33 52 -9.66 52 -10 52 C-10.125 46.25 -10.125 46.25 -9 44 C-8.86724286 41.27726491 -8.79006512 38.57587954 -8.75390625 35.8515625 C-8.72096656 34.19009892 -8.68775493 32.52864072 -8.65429688 30.8671875 C-8.60689007 28.24482945 -8.56246246 25.62249301 -8.52319336 23 C-8.48344161 20.47112206 -8.43190337 17.94269269 -8.37890625 15.4140625 C-8.3704921 14.63165192 -8.36207794 13.84924133 -8.35340881 13.04312134 C-8.19353856 5.99190009 -8.19353856 5.99190009 -6 3 C-3 1.1875 -3 1.1875 0 0 Z " fill="#A02424" transform="translate(387,140)"/>
<path d="M0 0 C2.64 0 5.28 0 8 0 C7.01 0.33 6.02 0.66 5 1 C5 5.62 5 10.24 5 15 C13.58 15 22.16 15 31 15 C31.495 16.485 31.495 16.485 32 18 C27.8882744 18.02465746 23.77657722 18.04283959 19.66479492 18.05493164 C18.26504772 18.0599708 16.8653058 18.06680216 15.46557617 18.07543945 C13.45754223 18.0875232 11.44947043 18.09269807 9.44140625 18.09765625 C8.23170166 18.10289307 7.02199707 18.10812988 5.77563477 18.11352539 C3 18 3 18 2 17 C2 15.35 2 13.7 2 12 C-21.43 12 -44.86 12 -69 12 C-69 11.01 -69 10.02 -69 9 C-34.35 8.505 -34.35 8.505 1 8 C1.33 5.69 1.66 3.38 2 1 C1.01 0.505 1.01 0.505 0 0 Z " fill="#CB322D" transform="translate(455,265)"/>
<path d="M0 0 C1.65 0 3.3 0 5 0 C5 46.86 5 93.72 5 142 C4.01 142.33 3.02 142.66 2 143 C2 113.63 2 84.26 2 54 C2.33 54 2.66 54 3 54 C3.07587179 46.63108899 3.12852436 39.26227814 3.16479492 31.89306641 C3.1799103 29.38456458 3.20040298 26.87608928 3.22631836 24.36767578 C3.26258042 20.76848818 3.27969874 17.169649 3.29296875 13.5703125 C3.30845261 12.44319855 3.32393646 11.31608459 3.33988953 10.15481567 C3.34011612 9.11388763 3.34034271 8.07295959 3.34057617 7.00048828 C3.34723801 6.08115509 3.35389984 5.1618219 3.36076355 4.21463013 C3.24171158 3.48380219 3.12265961 2.75297424 3 2 C2.01 1.34 1.02 0.68 0 0 Z " fill="#C23030" transform="translate(485,78)"/>
<path d="M0 0 C1.02802734 0.00966797 2.05605469 0.01933594 3.11523438 0.02929688 C4.72301758 0.06700195 4.72301758 0.06700195 6.36328125 0.10546875 C7.44673828 0.11900391 8.53019531 0.13253906 9.64648438 0.14648438 C12.3234153 0.18186232 14.99934963 0.23122686 17.67578125 0.29296875 C18.00578125 0.95296875 18.33578125 1.61296875 18.67578125 2.29296875 C11.41578125 2.29296875 4.15578125 2.29296875 -3.32421875 2.29296875 C-3.32421875 2.95296875 -3.32421875 3.61296875 -3.32421875 4.29296875 C-2.03644531 4.28136719 -0.74867188 4.26976562 0.578125 4.2578125 C2.25650897 4.24843605 3.93489451 4.2393357 5.61328125 4.23046875 C6.88848633 4.21790039 6.88848633 4.21790039 8.18945312 4.20507812 C8.99833984 4.20185547 9.80722656 4.19863281 10.640625 4.1953125 C11.38948975 4.19007568 12.13835449 4.18483887 12.90991211 4.17944336 C14.67578125 4.29296875 14.67578125 4.29296875 15.67578125 5.29296875 C15.74903293 8.15564442 15.7681633 10.99368775 15.73828125 13.85546875 C15.73376953 14.66177734 15.72925781 15.46808594 15.72460938 16.29882812 C15.71278643 18.29690631 15.69485039 20.29494658 15.67578125 22.29296875 C15.34578125 22.29296875 15.01578125 22.29296875 14.67578125 22.29296875 C14.34578125 17.01296875 14.01578125 11.73296875 13.67578125 6.29296875 C8.39578125 6.29296875 3.11578125 6.29296875 -2.32421875 6.29296875 C-2.32421875 15.20296875 -2.32421875 24.11296875 -2.32421875 33.29296875 C3.28578125 33.62296875 8.89578125 33.95296875 14.67578125 34.29296875 C11.0168462 36.73225878 8.27299792 36.55586548 4.05078125 36.48046875 C3.35726563 36.47982422 2.66375 36.47917969 1.94921875 36.47851562 C-3.18378618 36.43340132 -3.18378618 36.43340132 -4.32421875 35.29296875 C-4.55903568 33.11004101 -4.73785198 30.92093701 -4.88671875 28.73046875 C-4.97050781 27.53292969 -5.05429687 26.33539063 -5.140625 25.1015625 C-5.20121094 24.17472656 -5.26179688 23.24789062 -5.32421875 22.29296875 C-5.65421875 25.26296875 -5.98421875 28.23296875 -6.32421875 31.29296875 C-6.98421875 31.29296875 -7.64421875 31.29296875 -8.32421875 31.29296875 C-8.39843329 27.36035931 -8.45285011 23.42802153 -8.48901367 19.49487305 C-8.51150208 17.49969174 -8.54962073 15.50470662 -8.58789062 13.50976562 C-8.59755859 12.25615234 -8.60722656 11.00253906 -8.6171875 9.7109375 C-8.63289795 8.55360107 -8.6486084 7.39626465 -8.66479492 6.20385742 C-8.32421875 3.29296875 -8.32421875 3.29296875 -7.13867188 1.41015625 C-4.65603155 -0.11844468 -2.90489879 -0.04814749 0 0 Z " fill="#B2302F" transform="translate(433.32421875,160.70703125)"/>
<path d="M0 0 C1.32 0.33 2.64 0.66 4 1 C4 20.14 4 39.28 4 59 C2.515 59.495 2.515 59.495 1 60 C0.20096796 56.48846902 -0.12228039 53.25723894 -0.11352539 49.65893555 C-0.11344986 48.6182341 -0.11337433 47.57753265 -0.11329651 46.5052948 C-0.10813522 45.3936647 -0.10297394 44.28203461 -0.09765625 43.13671875 C-0.0962413 41.98959915 -0.09482635 40.84247955 -0.09336853 39.66059875 C-0.08777861 36.00287246 -0.07522789 32.34520775 -0.0625 28.6875 C-0.0574837 26.20507901 -0.05292102 23.72265706 -0.04882812 21.24023438 C-0.03781247 15.1601353 -0.0210843 9.08007205 0 3 C-0.66 2.67 -1.32 2.34 -2 2 C-1.34 2 -0.68 2 0 2 C0 1.34 0 0.68 0 0 Z " fill="#B02728" transform="translate(485,79)"/>
<path d="M0 0 C0.33 0.66 0.66 1.32 1 2 C-1 4 -1 4 -3 5 C-2.99476318 5.87624023 -2.98952637 6.75248047 -2.98413086 7.65527344 C-2.96689548 10.96533898 -2.9544571 14.27535553 -2.94506836 17.58544922 C-2.94009788 19.00700644 -2.93331916 20.42855872 -2.92456055 21.85009766 C-2.87198744 30.61434357 -3.07974938 39.27266264 -4 48 C-3.67 48 -3.34 48 -3 48 C-2.97290556 50.08326131 -2.95356127 52.16662441 -2.9375 54.25 C-2.92589844 55.41015625 -2.91429687 56.5703125 -2.90234375 57.765625 C-2.98309928 60.44024818 -3.28713852 62.46043099 -4 65 C-4.03845443 66.99963028 -4.04544281 69.00051633 -4 71 C-7.02392258 67.66974748 -7.3920276 65.3798291 -7.45166016 60.93383789 C-7.4740274 59.70899185 -7.49639465 58.48414581 -7.5194397 57.22218323 C-7.52591522 55.90233932 -7.53239075 54.58249542 -7.5390625 53.22265625 C-7.55124855 51.85029336 -7.56373474 50.47793311 -7.57650757 49.10557556 C-7.59895968 46.23153725 -7.60853521 43.35776365 -7.61083984 40.48364258 C-7.61612627 36.80642572 -7.6674808 33.13141836 -7.73035622 29.45479679 C-7.77128121 26.62108243 -7.78048244 23.78789989 -7.78095627 20.95391655 C-7.78893886 18.94132896 -7.82922995 16.92895321 -7.87002563 14.91676331 C-7.80342019 5.98207126 -7.80342019 5.98207126 -5.3883667 3.02999878 C-3.45068359 1.63061523 -3.45068359 1.63061523 0 0 Z " fill="#AF130E" transform="translate(382,140)"/>
<path d="M0 0 C22.44 0 44.88 0 68 0 C67.67 0.99 67.34 1.98 67 3 C66.29256149 3.01030746 65.58512299 3.02061493 64.85624695 3.03123474 C58.19068762 3.12919521 51.52521568 3.23170763 44.85980511 3.33933926 C41.43301772 3.39451353 38.00622172 3.44792466 34.5793457 3.49731445 C30.64004749 3.55416665 26.7008926 3.61867312 22.76171875 3.68359375 C20.9147364 3.70866249 20.9147364 3.70866249 19.03044128 3.73423767 C17.31900688 3.7641555 17.31900688 3.7641555 15.57299805 3.79467773 C14.06409248 3.81799416 14.06409248 3.81799416 12.52470398 3.84178162 C9.87395947 3.8996397 9.87395947 3.8996397 7 5 C4.64811553 4.40206327 2.31074405 3.74118205 0 3 C0 2.01 0 1.02 0 0 Z " fill="#CB322E" transform="translate(386,218)"/>
<path d="M0 0 C0.66 0.33 1.32 0.66 2 1 C1.67 53.8 1.34 106.6 1 161 C-1 159 -1 159 -1.24609566 157.00475883 C-1.24425207 156.18067591 -1.24240849 155.35659298 -1.24050903 154.50753784 C-1.24325836 153.56240326 -1.24600769 152.61726868 -1.24884033 151.64349365 C-1.24164978 150.60340149 -1.23445923 149.56330933 -1.22705078 148.49169922 C-1.22734283 147.39900726 -1.22763489 146.30631531 -1.22793579 145.18051147 C-1.22653825 141.55515708 -1.21095699 137.93000615 -1.1953125 134.3046875 C-1.19158388 131.79647941 -1.1887362 129.28826988 -1.18673706 126.78005981 C-1.17987119 120.84437714 -1.16409528 114.90876016 -1.14403808 108.97311127 C-1.11951013 101.55370182 -1.1087526 94.13428335 -1.09765625 86.71484375 C-1.07618515 73.47652514 -1.04241739 60.23826721 -1 47 C-1.33 47 -1.66 47 -2 47 C-2 33.8 -2 20.6 -2 7 C-1.34 7 -0.68 7 0 7 C0 4.69 0 2.38 0 0 Z " fill="#D0322D" transform="translate(354,81)"/>
<path d="M0 0 C0.33 0 0.66 0 1 0 C1.33 24.42 1.66 48.84 2 74 C-1 72 -1 72 -1.67842102 69.28277588 C-2.00082975 65.99152967 -2.13398489 62.78246066 -2.14526367 59.47558594 C-2.15164352 58.20116638 -2.15802338 56.92674683 -2.16459656 55.6137085 C-2.16612453 54.23726439 -2.16723887 52.86081976 -2.16796875 51.484375 C-2.17118457 50.06284553 -2.17454889 48.64131638 -2.17805481 47.2197876 C-2.18402291 44.25100943 -2.18589683 41.2822603 -2.18530273 38.31347656 C-2.18520063 34.504602 -2.19891249 30.69591184 -2.21607494 26.88708115 C-2.22716931 23.95663592 -2.22922282 21.02623587 -2.22869301 18.09577179 C-2.2298747 16.69071053 -2.23430707 15.28564816 -2.24202538 13.8806076 C-2.25178351 11.92270801 -2.24769385 9.96475403 -2.24291992 8.00683594 C-2.24434494 6.89242126 -2.24576996 5.77800659 -2.24723816 4.62982178 C-2 2 -2 2 0 0 Z " fill="#C32726" transform="translate(384,144)"/>
<path d="M0 0 C0.33 0 0.66 0 1 0 C1.02333455 12.17142706 1.04102141 24.34284866 1.05181217 36.51429367 C1.05699534 42.16806589 1.06400835 47.82182263 1.07543945 53.47558594 C1.08643274 58.94805297 1.09231106 64.42050525 1.09487724 69.89298248 C1.09670226 71.96418743 1.10026469 74.03539173 1.10573006 76.10659027 C1.1394588 89.4384144 0.80310827 102.69154376 0 116 C-0.33 116 -0.66 116 -1 116 C-1 98.84 -1 81.68 -1 64 C-1.66 64 -2.32 64 -3 64 C-3.02715383 62.25008666 -3.04646551 60.50005055 -3.0625 58.75 C-3.07410156 57.77546875 -3.08570313 56.8009375 -3.09765625 55.796875 C-3.01037158 53.29704198 -2.61345913 51.39930683 -2 49 C-0.46901602 32.7545589 -0.46407833 16.30541435 0 0 Z " fill="#C52925" transform="translate(353,96)"/>
<path d="M0 0 C0.33 0 0.66 0 1 0 C1.33 15.84 1.66 31.68 2 48 C27.74 48.33 53.48 48.66 80 49 C76.48784193 51.34143871 75.07718371 51.24828352 70.92382812 51.24291992 C69.67243042 51.24599655 68.42103271 51.24907318 67.13171387 51.25224304 C65.76489071 51.24534485 64.39806938 51.23807785 63.03125 51.23046875 C61.63024945 51.22927643 60.2292481 51.2288239 58.82824707 51.2290802 C55.89277132 51.22751635 52.95741769 51.21923455 50.02197266 51.20581055 C46.2591142 51.18882087 42.49638994 51.1849963 38.73349762 51.18575573 C35.84074625 51.1854838 32.94802421 51.17999892 30.05528259 51.17275429 C28.66780316 51.16957205 27.28032041 51.16760125 25.89283752 51.16686058 C23.95393682 51.16469234 22.01504859 51.15514842 20.07617188 51.14526367 C18.97269409 51.14145187 17.86921631 51.13764008 16.7322998 51.13371277 C14 51 14 51 11 50 C10.34 52.31 9.68 54.62 9 57 C8.731875 56.360625 8.46375 55.72125 8.1875 55.0625 C7.11332248 52.66868314 7.11332248 52.66868314 4 52 C2.33637583 51.65179959 0.67004829 51.31595508 -1 51 C-1.02497411 45.6655307 -1.04298798 40.33109646 -1.05493164 34.99658203 C-1.05991803 33.18700568 -1.06670954 31.37743326 -1.07543945 29.56787109 C-1.12197817 19.66333787 -1.1159229 9.85836736 0 0 Z " fill="#CC3231" transform="translate(374,216)"/>
<path d="M0 0 C0.33 0 0.66 0 1 0 C1.01030746 0.6403569 1.02061493 1.28071381 1.03123474 1.94047546 C1.13944973 8.60779725 1.25403552 15.27498799 1.37231445 21.94213867 C1.4156152 24.4300665 1.45729372 26.91802311 1.49731445 29.40600586 C1.55513453 32.98299839 1.61879551 36.55984667 1.68359375 40.13671875 C1.70030624 41.24834885 1.71701874 42.35997894 1.73423767 43.5052948 C1.75418289 44.54599625 1.77412811 45.58669769 1.79467773 46.65893555 C1.81799416 48.02794258 1.81799416 48.02794258 1.84178162 49.42460632 C2.00179437 52.0292078 2.42803435 54.45676199 3 57 C2.34 57 1.68 57 1 57 C0.67 65.25 0.34 73.5 0 82 C-2.45391569 78.31912647 -2.22802759 75.55644412 -2.125 71.3125 C-2.11597656 70.61060547 -2.10695313 69.90871094 -2.09765625 69.18554688 C-2.07413704 67.45688475 -2.03826713 65.72839855 -2 64 C-6.455 64.495 -6.455 64.495 -11 65 C-11 65.33 -11 65.66 -11 66 C-14.96 66 -18.92 66 -23 66 C-23 65.67 -23 65.34 -23 65 C-24.98 64.67 -26.96 64.34 -29 64 C-29 63.34 -29 62.68 -29 62 C-20.09 62 -11.18 62 -2 62 C-1.11975993 58.47903971 -0.84926156 55.80861682 -0.79467773 52.22167969 C-0.77473251 51.0607782 -0.75478729 49.89987671 -0.73423767 48.70379639 C-0.71752518 47.45576233 -0.70081268 46.20772827 -0.68359375 44.921875 C-0.66281265 43.64016418 -0.64203156 42.35845337 -0.62062073 41.03790283 C-0.56555253 37.63823728 -0.51607636 34.23851262 -0.46777344 30.83874512 C-0.41744668 27.36640186 -0.36181907 23.89414395 -0.30664062 20.421875 C-0.19924578 13.61465739 -0.09775973 6.80736261 0 0 Z " fill="#CF3131" transform="translate(415,25)"/>
<path d="M0 0 C0.66 0 1.32 0 2 0 C2.0232884 9.1803813 2.0409985 18.36075225 2.05181217 27.54115677 C2.05700519 31.80511782 2.06403687 36.06905849 2.07543945 40.33300781 C2.08639676 44.45679674 2.09230373 48.58056621 2.09487724 52.70436859 C2.09670855 54.26862646 2.100284 55.83288341 2.10573006 57.39713287 C2.13549822 66.31119271 1.94142563 75.12387273 1 84 C0.67 84 0.34 84 0 84 C0 64.2 0 44.4 0 24 C-0.66 24 -1.32 24 -2 24 C-2 20.7 -2 17.4 -2 14 C-1.34 14 -0.68 14 0 14 C0 9.38 0 4.76 0 0 Z " fill="#C52823" transform="translate(373,144)"/>
<path d="M0 0 C0.66 0 1.32 0 2 0 C2.82130142 2.87413546 3.12230589 5.41599822 3.11352539 8.40136719 C3.11344986 9.2619574 3.11337433 10.12254761 3.11329651 11.00921631 C3.10813522 11.92914368 3.10297394 12.84907104 3.09765625 13.796875 C3.0962413 14.74564514 3.09482635 15.69441528 3.09336853 16.67193604 C3.08777742 19.69798962 3.07522652 22.72396883 3.0625 25.75 C3.05748385 27.80338435 3.05292115 29.85676986 3.04882812 31.91015625 C3.03781089 36.94013276 3.02055233 41.97005378 3 47 C3.68835938 46.45859375 3.68835938 46.45859375 4.390625 45.90625 C5.00421875 45.4421875 5.6178125 44.978125 6.25 44.5 C6.85328125 44.0359375 7.4565625 43.571875 8.078125 43.09375 C10 42 10 42 14 42 C13 45 13 45 10 47 C9.690625 47.825 9.38125 48.65 9.0625 49.5 C8 52 8 52 6.0625 53.3125 C4 54 4 54 1 54 C-0.25274723 51.49450555 -0.12029624 49.80264368 -0.11352539 46.99951172 C-0.11344986 45.95858368 -0.11337433 44.91765564 -0.11329651 43.84518433 C-0.10813522 42.71807037 -0.10297394 41.59095642 -0.09765625 40.4296875 C-0.0962413 39.27832306 -0.09482635 38.12695862 -0.09336853 36.94070435 C-0.08775716 33.25211014 -0.0752027 29.56357595 -0.0625 25.875 C-0.05748647 23.37890712 -0.05292331 20.8828133 -0.04882812 18.38671875 C-0.03778403 12.25779191 -0.0210348 6.12890024 0 0 Z " fill="#C82D2B" transform="translate(382,88)"/>
<path d="M0 0 C2.0625 0.4375 2.0625 0.4375 4 1 C4.16755938 4.95075379 4.3281242 8.90172321 4.48217773 12.85302734 C4.56187238 14.85920071 4.64712518 16.86515076 4.73242188 18.87109375 C4.78076172 20.12792969 4.82910156 21.38476562 4.87890625 22.6796875 C4.9260376 23.84226074 4.97316895 25.00483398 5.02172852 26.20263672 C5 29 5 29 4 31 C3.34 31 2.68 31 2 31 C2 38.92 2 46.84 2 55 C1.34 55 0.68 55 0 55 C0.00523682 54.18136475 0.01047363 53.36272949 0.01586914 52.51928711 C0.03719238 48.65870071 0.05223621 44.79812901 0.0625 40.9375 C0.06444366 40.24025818 0.06638733 39.54301636 0.06838989 38.824646 C0.08857277 28.42911623 -0.13097412 18.07642749 -0.73217773 7.69506836 C-0.78059814 6.81858643 -0.82901855 5.94210449 -0.87890625 5.0390625 C-0.9260376 4.27803223 -0.97316895 3.51700195 -1.02172852 2.73291016 C-1 1 -1 1 0 0 Z " fill="#BD201C" transform="translate(464,143)"/>
<path d="M0 0 C0.33 0 0.66 0 1 0 C1 5.94 1 11.88 1 18 C1.66 18.33 2.32 18.66 3 19 C2.67 19.99 2.34 20.98 2 22 C6.10472658 21.8903028 10.20852148 21.75963024 14.3125 21.625 C16.06336914 21.57859375 16.06336914 21.57859375 17.84960938 21.53125 C19.52700195 21.47324219 19.52700195 21.47324219 21.23828125 21.4140625 C22.7857605 21.36693115 22.7857605 21.36693115 24.36450195 21.31884766 C27.22843236 21.17325371 27.22843236 21.17325371 30 19 C29.67 20.65 29.34 22.3 29 24 C25.64264863 25.11911712 23.11794614 25.11365586 19.58203125 25.09765625 C18.32841797 25.09443359 17.07480469 25.09121094 15.78320312 25.08789062 C14.47287109 25.07951172 13.16253906 25.07113281 11.8125 25.0625 C10.47721519 25.05748317 9.14192859 25.05292059 7.80664062 25.04882812 C4.5377412 25.03702704 1.26886498 25.01909136 -2 25 C-2 18.73 -2 12.46 -2 6 C-1.67 6 -1.34 6 -1 6 C-0.67 4.02 -0.34 2.04 0 0 Z " fill="#CC3331" transform="translate(354,258)"/>
<path d="M0 0 C0.33 0 0.66 0 1 0 C1.33 10.56 1.66 21.12 2 32 C2.33 32 2.66 32 3 32 C3.07588365 38.79924392 3.12852926 45.59837922 3.16479492 52.39794922 C3.17990853 54.71244385 3.20039996 57.02690974 3.22631836 59.34130859 C3.26258841 62.66250696 3.27970044 65.98332768 3.29296875 69.3046875 C3.30845261 70.34430634 3.32393646 71.38392517 3.33988953 72.45504761 C3.34011612 73.41589264 3.34034271 74.37673767 3.34057617 75.36669922 C3.34723801 76.21497284 3.35389984 77.06324646 3.36076355 77.93722534 C3.18218559 78.9582988 3.18218559 78.9582988 3 80 C1.515 80.99 1.515 80.99 0 82 C-1.22587339 54.66889193 -1.74060817 27.32133176 0 0 Z " fill="#AA2724" transform="translate(351,160)"/>
<path d="M0 0 C0.99 0.495 0.99 0.495 2 1 C1.99777939 1.69713104 1.99555878 2.39426208 1.99327087 3.11251831 C1.97325202 9.67529238 1.95801771 16.23805796 1.94818783 22.80085564 C1.94296435 26.17503026 1.93587639 29.54917971 1.92456055 32.92333984 C1.91247564 36.80046259 1.90676737 40.6775494 1.90234375 44.5546875 C1.89718246 45.76929657 1.89202118 46.98390564 1.88670349 48.23532104 C1.88662796 49.35633209 1.88655243 50.47734314 1.88647461 51.63232422 C1.884254 52.62271698 1.88203339 53.61310974 1.87974548 54.6335144 C1.84229846 57.01896773 1.84229846 57.01896773 3 59 C11.91 59 20.82 59 30 59 C30 59.99 30 60.98 30 62 C26.04903022 62.04939662 22.0981797 62.08571755 18.14697266 62.10986328 C16.1408864 62.12488107 14.13488676 62.15028981 12.12890625 62.17578125 C10.87207031 62.18222656 9.61523438 62.18867187 8.3203125 62.1953125 C7.15773926 62.20578613 5.99516602 62.21625977 4.79736328 62.22705078 C2 62 2 62 0 60 C-0.24050903 57.48165894 -0.24050903 57.48165894 -0.22705078 54.26513672 C-0.22689972 53.06404266 -0.22674866 51.86294861 -0.22659302 50.62545776 C-0.21627045 49.32335358 -0.20594788 48.02124939 -0.1953125 46.6796875 C-0.19158276 45.33733327 -0.18873561 43.99497633 -0.18673706 42.65261841 C-0.17909744 39.117986 -0.1594463 35.58351772 -0.1373291 32.0489502 C-0.11687765 28.4428123 -0.10773685 24.83664791 -0.09765625 21.23046875 C-0.0762006 14.15357865 -0.04206079 7.07680003 0 0 Z " fill="#A12D2C" transform="translate(427,25)"/>
<path d="M0 0 C0.33 0 0.66 0 1 0 C0.979375 0.59167969 0.95875 1.18335938 0.9375 1.79296875 C0.958125 2.58316406 0.97875 3.37335938 1 4.1875 C1 4.96480469 1 5.74210938 1 6.54296875 C2.24472608 9.60129963 3.13784847 9.66746712 6.03125 11.0625 C8.21875 12.31518555 8.21875 12.31518555 10 14 C11.02013511 17.96402949 10.75794155 21.75240082 10.5 25.8125 C10.46390625 26.88693359 10.4278125 27.96136719 10.390625 29.06835938 C10.29649065 31.71588793 10.16518356 34.35611006 10 37 C9.67 37 9.34 37 9 37 C8.505 29.575 8.505 29.575 8 22 C7.67 22 7.34 22 7 22 C6.67 20.02 6.34 18.04 6 16 C4.68 16.33 3.36 16.66 2 17 C1.96261719 17.61488281 1.92523438 18.22976562 1.88671875 18.86328125 C1.78810547 20.07564453 1.78810547 20.07564453 1.6875 21.3125 C1.62949219 22.11300781 1.57148438 22.91351563 1.51171875 23.73828125 C0.91793306 26.36272334 0.04219706 27.30820672 -2 29 C-2.10251672 23.87416389 -2.03590199 19.05002222 -1 14 C-0.01 14 0.98 14 2 14 C1.34 13.67 0.68 13.34 0 13 C0 8.71 0 4.42 0 0 Z " fill="#CB2E2E" transform="translate(459,128)"/>
<path d="M0 0 C2 1 2 1 3.125 4.0625 C3.41375 5.031875 3.7025 6.00125 4 7 C3.67 7.33 3.34 7.66 3 8 C2.93716449 9.55344391 2.94062634 11.10967825 2.97265625 12.6640625 C2.98490234 13.62183594 2.99714844 14.57960937 3.00976562 15.56640625 C3.04451914 17.58211015 3.08348081 19.59774654 3.12695312 21.61328125 C3.1896842 27.14099629 3.03514028 31.82351078 1 37 C-2.88691948 38.94345974 -7.72514581 38.18480803 -12 38.1875 C-13.02351563 38.19974609 -14.04703125 38.21199219 -15.1015625 38.22460938 C-16.07867187 38.22654297 -17.05578125 38.22847656 -18.0625 38.23046875 C-18.96097656 38.23457764 -19.85945313 38.23868652 -20.78515625 38.24291992 C-23 38 -23 38 -25 36 C-17.41 36 -9.82 36 -2 36 C-0.43069048 30.50741669 0.243633 27.40871301 0.1953125 21.97265625 C0.18886719 20.68681641 0.18242187 19.40097656 0.17578125 18.07617188 C0.15907601 16.73827846 0.14214619 15.40038783 0.125 14.0625 C0.11495322 12.69727217 0.10583036 11.3320372 0.09765625 9.96679688 C0.07417605 6.64434801 0.04133359 3.32226679 0 0 Z " fill="#B52920" transform="translate(452,163)"/>
<path d="M0 0 C0.99 0.495 0.99 0.495 2 1 C2.44921875 2.75 2.44921875 2.75 2.6875 5 C2.77386719 5.721875 2.86023438 6.44375 2.94921875 7.1875 C2.99281458 9.60203811 2.81496273 11.73044788 2.50927734 14.11499023 C1.97684117 18.75311002 1.87078712 23.30834016 1.90234375 27.97265625 C1.9037587 28.78117538 1.90517365 29.58969452 1.90663147 30.42271423 C1.91216586 32.96934942 1.9247054 35.51589203 1.9375 38.0625 C1.9425235 39.80403518 1.94708491 41.54557175 1.95117188 43.28710938 C1.96211366 47.52477448 1.97933174 51.76237163 2 56 C2.66 56.33 3.32 56.66 4 57 C2.68 57 1.36 57 0 57 C0 38.19 0 19.38 0 0 Z " fill="#AB2422" transform="translate(375,207)"/>
<path d="M0 0 C0.804375 -0.00128906 1.60875 -0.00257813 2.4375 -0.00390625 C3.283125 -0.00003906 4.12875 0.00382813 5 0.0078125 C6.2684375 0.00201172 6.2684375 0.00201172 7.5625 -0.00390625 C8.366875 -0.00261719 9.17125 -0.00132812 10 0 C10.7425 0.00112793 11.485 0.00225586 12.25 0.00341797 C14 0.1328125 14 0.1328125 15 1.1328125 C15.07325168 3.99548817 15.09238205 6.8335315 15.0625 9.6953125 C15.05798828 10.50162109 15.05347656 11.30792969 15.04882812 12.13867188 C15.03700518 14.13675006 15.01906914 16.13479033 15 18.1328125 C14.67 18.1328125 14.34 18.1328125 14 18.1328125 C13.67 12.8528125 13.34 7.5728125 13 2.1328125 C7.72 2.1328125 2.44 2.1328125 -3 2.1328125 C-3 11.0428125 -3 19.9528125 -3 29.1328125 C2.61 29.4628125 8.22 29.7928125 14 30.1328125 C10.34106495 32.57210253 7.59721667 32.39570923 3.375 32.3203125 C2.68148438 32.31966797 1.98796875 32.31902344 1.2734375 32.31835938 C-3.85956743 32.27324507 -3.85956743 32.27324507 -5 31.1328125 C-5.10012401 28.92630594 -5.1308118 26.71658864 -5.1328125 24.5078125 C-5.13376923 23.84571777 -5.13472595 23.18362305 -5.13571167 22.50146484 C-5.13639326 21.09928289 -5.13454042 19.6970978 -5.13037109 18.29492188 C-5.12502246 16.14185537 -5.1303167 13.98899748 -5.13671875 11.8359375 C-5.13605796 10.47656204 -5.13477679 9.1171867 -5.1328125 7.7578125 C-5.13168457 6.51257813 -5.13055664 5.26734375 -5.12939453 3.984375 C-4.9338026 -0.32602831 -3.91990664 0.00595472 0 0 Z " fill="#A32D2A" transform="translate(434,164.8671875)"/>
<path d="M0 0 C0.33 0 0.66 0 1 0 C1.07402793 5.51754805 1.12854366 11.03480856 1.16479492 16.55273438 C1.17990325 18.43071526 1.20039094 20.30866076 1.22631836 22.18652344 C1.26261246 24.88225019 1.27970545 27.57751146 1.29296875 30.2734375 C1.30845261 31.11619232 1.32393646 31.95894714 1.33988953 32.82723999 C1.34057617 35.19287109 1.34057617 35.19287109 1 39 C0.01 39.66 -0.98 40.32 -2 41 C-2 36.71 -2 32.42 -2 28 C-2.66 28 -3.32 28 -4 28 C-4 27.34 -4 26.68 -4 26 C-3.34 26 -2.68 26 -2 26 C-2 18.08 -2 10.16 -2 2 C-1.34 2 -0.68 2 0 2 C0 1.34 0 0.68 0 0 Z " fill="#C3302C" transform="translate(468,172)"/>
<path d="M0 0 C5.625 0 5.625 0 9 2 C6.69 2.33 4.38 2.66 2 3 C2 5.97 2 8.94 2 12 C9.92 12 17.84 12 26 12 C26 10.02 26 8.04 26 6 C26.33 6 26.66 6 27 6 C27.04241723 8.33294775 27.04092937 10.66702567 27 13 C26 14 26 14 23.49975586 14.11352539 C22.41573486 14.10828857 21.33171387 14.10305176 20.21484375 14.09765625 C19.04501953 14.09443359 17.87519531 14.09121094 16.66992188 14.08789062 C14.82237305 14.07532227 14.82237305 14.07532227 12.9375 14.0625 C11.08415039 14.05573242 11.08415039 14.05573242 9.19335938 14.04882812 C6.12888587 14.03699618 3.06443707 14.01906008 0 14 C0 9.38 0 4.76 0 0 Z " fill="#A42421" transform="translate(460,266)"/>
<path d="M0 0 C0.66 0.33 1.32 0.66 2 1 C2 11.56 2 22.12 2 33 C1.34 33 0.68 33 0 33 C-1.01957436 29.62689971 -1.12903371 26.54242489 -1.1328125 23.02734375 C-1.13410156 21.88072266 -1.13539063 20.73410156 -1.13671875 19.55273438 C-1.13285156 18.35970703 -1.12898438 17.16667969 -1.125 15.9375 C-1.12886719 14.74060547 -1.13273437 13.54371094 -1.13671875 12.31054688 C-1.13542969 11.16521484 -1.13414062 10.01988281 -1.1328125 8.83984375 C-1.13168457 7.79175537 -1.13055664 6.74366699 -1.12939453 5.66381836 C-1 3 -1 3 0 0 Z " fill="#AB2020" transform="translate(422,50)"/>
<path d="M0 0 C2.31 0.66 4.62 1.32 7 2 C7 8.93 7 15.86 7 23 C6.34 23 5.68 23 5 23 C4.34 24.32 3.68 25.64 3 27 C2.61866701 25.0085944 2.28674418 23.00720923 2 21 C2.33 20.67 2.66 20.34 3 20 C3.07319621 17.30345146 3.09242537 14.63308542 3.0625 11.9375 C3.05798828 11.17888672 3.05347656 10.42027344 3.04882812 9.63867188 C3.0370068 7.75908129 3.01907078 5.87953101 3 4 C1.35 3.67 -0.3 3.34 -2 3 C-1.34 2.67 -0.68 2.34 0 2 C0 1.34 0 0.68 0 0 Z " fill="#C3302A" transform="translate(422,2)"/>
<path d="M0 0 C0 0.99 0 1.98 0 3 C0.66 2.67 1.32 2.34 2 2 C3.83037287 1.87854007 5.66564133 1.82456815 7.5 1.8125 C8.4796875 1.79832031 9.459375 1.78414063 10.46875 1.76953125 C13 2 13 2 15 4 C12.28598706 5.35700647 10.15153684 5.1123861 7.1171875 5.09765625 C5.95058594 5.09443359 4.78398437 5.09121094 3.58203125 5.08789062 C2.35871094 5.07951172 1.13539063 5.07113281 -0.125 5.0625 C-1.35605469 5.05798828 -2.58710938 5.05347656 -3.85546875 5.04882812 C-6.90369392 5.0370133 -9.95182314 5.02054028 -13 5 C-12.67 4.01 -12.34 3.02 -12 2 C-10.37548581 1.66430703 -8.75037083 1.3315204 -7.125 1 C-6.22007812 0.814375 -5.31515625 0.62875 -4.3828125 0.4375 C-2 0 -2 0 0 0 Z " fill="#D0302C" transform="translate(414,122)"/>
<path d="M0 0 C4.75 0.875 4.75 0.875 7 2 C7 2.99 7 3.98 7 5 C-5.375 5.495 -5.375 5.495 -18 6 C-18.33 5.01 -18.66 4.02 -19 3 C-17.48578999 1.48578999 -16.07527232 1.78690144 -13.96484375 1.68359375 C-13.15595703 1.64169922 -12.34707031 1.59980469 -11.51367188 1.55664062 C-10.2384668 1.49766602 -10.2384668 1.49766602 -8.9375 1.4375 C-8.08349609 1.39431641 -7.22949219 1.35113281 -6.34960938 1.30664062 C-4.23327963 1.20023298 -2.11666187 1.09958269 0 1 C0 0.67 0 0.34 0 0 Z " fill="#C52C2E" transform="translate(378,76)"/>
<path d="M0 0 C4.10410755 -0.05796132 8.20811016 -0.09358313 12.3125 -0.125 C13.47974609 -0.14175781 14.64699219 -0.15851563 15.84960938 -0.17578125 C16.96787109 -0.18222656 18.08613281 -0.18867187 19.23828125 -0.1953125 C20.26993408 -0.20578613 21.30158691 -0.21625977 22.36450195 -0.22705078 C25 0 25 0 28 2 C26.68 2 25.36 2 24 2 C24 2.99 24 3.98 24 5 C21.65147472 6.17426264 20.26225935 6.11508173 17.6484375 6.09765625 C16.79765625 6.09443359 15.946875 6.09121094 15.0703125 6.08789062 C14.18085938 6.07951172 13.29140625 6.07113281 12.375 6.0625 C11.4778125 6.05798828 10.580625 6.05347656 9.65625 6.04882812 C7.43743352 6.03702591 5.21874982 6.02056155 3 6 C3 5.67 3 5.34 3 5 C8.94 5 14.88 5 21 5 C21 4.01 21 3.02 21 2 C19.60587891 2.01740234 19.60587891 2.01740234 18.18359375 2.03515625 C5.90509666 2.12478032 5.90509666 2.12478032 0 1 C0 0.67 0 0.34 0 0 Z " fill="#AB272D" transform="translate(461,76)"/>
<path d="M0 0 C1.32 0 2.64 0 4 0 C3.97905273 0.8470752 3.95810547 1.69415039 3.93652344 2.56689453 C3.86805945 5.73140393 3.81806013 8.89553391 3.78027344 12.06054688 C3.76024681 13.42623368 3.73301668 14.79183569 3.69824219 16.15722656 C3.64933568 18.12787102 3.62908653 20.09915983 3.609375 22.0703125 C3.58842773 23.25383301 3.56748047 24.43735352 3.54589844 25.65673828 C4.08925762 29.65714726 5.56227421 31.83264348 8 35 C4.83884224 33.63016497 4.0072908 33.0109362 2 30 C1.68115234 27.45629883 1.68115234 27.45629883 1.5859375 24.45703125 C1.54726563 23.38388672 1.50859375 22.31074219 1.46875 21.20507812 C1.4378125 20.08552734 1.406875 18.96597656 1.375 17.8125 C1.31699219 16.11577148 1.31699219 16.11577148 1.2578125 14.38476562 C1.16347467 11.5900075 1.07788348 8.79525722 1 6 C0.67 6 0.34 6 0 6 C0 4.02 0 2.04 0 0 Z " fill="#952829" transform="translate(377,186)"/>
<path d="M0 0 C2.31 0.66 4.62 1.32 7 2 C7 2.66 7 3.32 7 4 C8.32 4 9.64 4 11 4 C11 4.66 11 5.32 11 6 C10.01 6 9.02 6 8 6 C7.67 14.58 7.34 23.16 7 32 C6.67 32 6.34 32 6 32 C5.99589111 31.26885986 5.99178223 30.53771973 5.98754883 29.78442383 C5.95457791 26.45963693 5.88392853 23.13667384 5.8125 19.8125 C5.80669922 18.66201172 5.80089844 17.51152344 5.79492188 16.32617188 C5.87722684 9.43086171 5.87722684 9.43086171 2.44921875 3.82421875 C1.23685547 2.92123047 1.23685547 2.92123047 0 2 C0 1.34 0 0.68 0 0 Z " fill="#AC2A29" transform="translate(450,136)"/>
<path d="M0 0 C1.32 0 2.64 0 4 0 C5.33257403 9.41002278 5.33257403 9.41002278 4 14 C1.69 13.67 -0.62 13.34 -3 13 C-2.01 12.67 -1.02 12.34 0 12 C0 8.04 0 4.08 0 0 Z " fill="#BF2F25" transform="translate(448,184)"/>
<path d="M0 0 C6.27 0 12.54 0 19 0 C19.33 0.66 19.66 1.32 20 2 C18 4 18 4 15.1796875 4.1953125 C14.08914063 4.17210938 12.99859375 4.14890625 11.875 4.125 C10.77929688 4.10695313 9.68359375 4.08890625 8.5546875 4.0703125 C7.71164062 4.04710938 6.86859375 4.02390625 6 4 C6 3.67 6 3.34 6 3 C3.03 2.505 3.03 2.505 0 2 C0 1.34 0 0.68 0 0 Z " fill="#C43436" transform="translate(386,87)"/>
<path d="M0 0 C0.66 0 1.32 0 2 0 C2.05896868 3.14575207 2.09391603 6.2913586 2.125 9.4375 C2.14175781 10.31599609 2.15851563 11.19449219 2.17578125 12.09960938 C2.21967784 18.04759738 1.48881322 23.2381756 0 29 C-0.33 29 -0.66 29 -1 29 C-0.67 19.43 -0.34 9.86 0 0 Z " fill="#A23337" transform="translate(465,218)"/>
<path d="M0 0 C-0.9590625 0.5878125 -0.9590625 0.5878125 -1.9375 1.1875 C-4.43778819 3.38472296 -4.64950425 4.75791433 -5 8 C-5.33 8 -5.66 8 -6 8 C-6.33 16.91 -6.66 25.82 -7 35 C-7.33 35 -7.66 35 -8 35 C-8.02468857 30.4793335 -8.04285449 25.9587061 -8.05493164 21.43798828 C-8.05996552 19.89956987 -8.06679308 18.36115625 -8.07543945 16.82275391 C-8.08754639 14.61359474 -8.09323769 12.40449874 -8.09765625 10.1953125 C-8.10281754 9.50567413 -8.10797882 8.81603577 -8.11329651 8.10549927 C-8.11387171 3.22774341 -8.11387171 3.22774341 -7 1 C-2.44155844 -1.22077922 -2.44155844 -1.22077922 0 0 Z " fill="#B22924" transform="translate(389,141)"/>
<path d="M0 0 C2.31 0 4.62 0 7 0 C8.37520651 3.82001808 7.74051523 7.07526927 7 11 C6 12 6 12 3.68334961 12.11352539 C2.68311768 12.10828857 1.68288574 12.10305176 0.65234375 12.09765625 C-0.42724609 12.09443359 -1.50683594 12.09121094 -2.61914062 12.08789062 C-3.75544922 12.07951172 -4.89175781 12.07113281 -6.0625 12.0625 C-7.20267578 12.05798828 -8.34285156 12.05347656 -9.51757812 12.04882812 C-12.34510351 12.03699747 -15.1725264 12.0205141 -18 12 C-17.67 11.34 -17.34 10.68 -17 10 C-9.74 10 -2.48 10 5 10 C5 7.69 5 5.38 5 3 C3.35 2.34 1.7 1.68 0 1 C0 0.67 0 0.34 0 0 Z " fill="#9B2A2A" transform="translate(374,267)"/>
<path d="M0 0 C0.33 0 0.66 0 1 0 C1.02709444 2.08326131 1.04643873 4.16662441 1.0625 6.25 C1.07410156 7.41015625 1.08570313 8.5703125 1.09765625 9.765625 C1.01690072 12.44024818 0.71286148 14.46043099 0 17 C-0.03845443 18.99963028 -0.04544281 21.00051633 0 23 C-2.80045623 19.85408067 -3.35261589 17.932936 -3.1875 13.75 C-3.16042969 12.85796875 -3.13335937 11.9659375 -3.10546875 11.046875 C-3.07066406 10.37140625 -3.03585937 9.6959375 -3 9 C-2.34 9 -1.68 9 -1 9 C-0.67 6.03 -0.34 3.06 0 0 Z " fill="#C9110B" transform="translate(378,188)"/>
<path d="M0 0 C4.43458973 1.3937282 6.87378374 3.60582235 10 7 C9.01 7.66 8.02 8.32 7 9 C7 9.99 7 10.98 7 12 C4.69 10.02 2.38 8.04 0 6 C0.33 5.01 0.66 4.02 1 3 C0.67 2.01 0.34 1.02 0 0 Z " fill="#AD2F34" transform="translate(440,123)"/>
<path d="M0 0 C0.33 1.32 0.66 2.64 1 4 C1.99 4 2.98 4 4 4 C4 5.32 4 6.64 4 8 C2.68 8.33 1.36 8.66 0 9 C0 9.66 0 10.32 0 11 C2.64 11 5.28 11 8 11 C7.67 12.32 7.34 13.64 7 15 C6.67 14.34 6.34 13.68 6 13 C3.87423218 12.53348793 3.87423218 12.53348793 1.4375 12.375 C0.61121094 12.30023438 -0.21507812 12.22546875 -1.06640625 12.1484375 C-1.70449219 12.09945312 -2.34257812 12.05046875 -3 12 C-2.67 10.35 -2.34 8.7 -2 7 C-1.34 7 -0.68 7 0 7 C0 4.69 0 2.38 0 0 Z " fill="#BF2B28" transform="translate(418,75)"/>
<path d="M0 0 C0.33 0.66 0.66 1.32 1 2 C-1 4 -1 4 -4 6 C-4.33814748 8.47491114 -4.48872339 10.71351688 -4.51171875 13.1953125 C-4.52966995 13.90275604 -4.54762115 14.61019958 -4.56611633 15.33908081 C-4.62034442 17.60099303 -4.65415316 19.86269284 -4.6875 22.125 C-4.72066226 23.65758173 -4.7551509 25.19013538 -4.79101562 26.72265625 C-4.87607727 30.48161779 -4.94282753 34.240515 -5 38 C-5.33 38 -5.66 38 -6 38 C-6.14849962 33.23125836 -6.25728023 28.46386585 -6.32958984 23.69335938 C-6.35973462 22.0713761 -6.40065941 20.44955548 -6.45263672 18.828125 C-6.52556613 16.49438389 -6.55947489 14.16279889 -6.5859375 11.828125 C-6.61690521 11.10506165 -6.64787292 10.38199829 -6.67977905 9.63702393 C-6.68115234 7.57519531 -6.68115234 7.57519531 -6 4 C-2.96337891 1.51074219 -2.96337891 1.51074219 0 0 Z " fill="#A71F15" transform="translate(382,140)"/>
<path d="M0 0 C0.33 0 0.66 0 1 0 C1 8.58 1 17.16 1 26 C0.67 26 0.34 26 0 26 C-0.04898437 25.01257813 -0.09796875 24.02515625 -0.1484375 23.0078125 C-0.22320312 21.72648437 -0.29796875 20.44515625 -0.375 19.125 C-0.44460938 17.84882813 -0.51421875 16.57265625 -0.5859375 15.2578125 C-0.67241106 11.91938301 -0.67241106 11.91938301 -3 10 C-2.79296875 7.87109375 -2.79296875 7.87109375 -2.1875 5.4375 C-1.99542969 4.63183594 -1.80335938 3.82617188 -1.60546875 2.99609375 C-1 1 -1 1 0 0 Z " fill="#BE2A25" transform="translate(467,237)"/>
<path d="M0 0 C-0.721875 0.556875 -1.44375 1.11375 -2.1875 1.6875 C-5.07086423 3.9729976 -5.07086423 3.9729976 -7.6875 6.75 C-10 9 -10 9 -12 9 C-10.70700306 6.11562221 -9.34058637 4.12780579 -7 2 C-10.0831351 3.19899698 -13.06279492 4.47700477 -16 6 C-16 5.34 -16 4.68 -16 4 C-10.52028315 -1.01335797 -7.17301865 -1.64280019 0 0 Z " fill="#A2282B" transform="translate(403,128)"/>
<path d="M0 0 C0.66 0 1.32 0 2 0 C2 6.6 2 13.2 2 20 C1.34 20.33 0.68 20.66 0 21 C0 19.35 0 17.7 0 16 C-0.66 16 -1.32 16 -2 16 C-2 15.34 -2 14.68 -2 14 C-1.34 14 -0.68 14 0 14 C0 9.38 0 4.76 0 0 Z " fill="#C82B29" transform="translate(373,144)"/>
<path d="M0 0 C0.33 0 0.66 0 1 0 C1.33 2.31 1.66 4.62 2 7 C2.33 7 2.66 7 3 7 C3 11.62 3 16.24 3 21 C2.34 21 1.68 21 1 21 C0.21311555 18.22276075 -0.11949924 15.77389923 -0.09765625 12.890625 C-0.09443359 12.13652344 -0.09121094 11.38242188 -0.08789062 10.60546875 C-0.07951172 9.82816406 -0.07113281 9.05085938 -0.0625 8.25 C-0.05798828 7.45722656 -0.05347656 6.66445312 -0.04882812 5.84765625 C-0.03708565 3.89840492 -0.01915146 1.94919262 0 0 Z " fill="#B01719" transform="translate(421,62)"/>
<path d="M0 0 C0.66 0 1.32 0 2 0 C2.1875 2.875 2.1875 2.875 2 6 C-1.2661953 8.17746353 -2.24945834 8.25606429 -6.03515625 8.265625 C-7.00904297 8.26820313 -7.98292969 8.27078125 -8.98632812 8.2734375 C-10.00146484 8.26570312 -11.01660156 8.25796875 -12.0625 8.25 C-13.08150391 8.25773438 -14.10050781 8.26546875 -15.15039062 8.2734375 C-16.12298828 8.27085937 -17.09558594 8.26828125 -18.09765625 8.265625 C-18.98976807 8.26336914 -19.88187988 8.26111328 -20.80102539 8.25878906 C-23 8 -23 8 -25 6 C-17.41 6 -9.82 6 -2 6 C-1.34 4.02 -0.68 2.04 0 0 Z " fill="#A03330" transform="translate(452,193)"/>
<path d="M0 0 C1.32 0.33 2.64 0.66 4 1 C4 1.66 4 2.32 4 3 C4.66 3.33 5.32 3.66 6 4 C4.24135754 6.1793144 3.30604 6.93686419 0.51953125 7.51171875 C-0.82044922 7.59873047 -0.82044922 7.59873047 -2.1875 7.6875 C-3.08855469 7.75324219 -3.98960937 7.81898438 -4.91796875 7.88671875 C-5.60503906 7.92410156 -6.29210937 7.96148437 -7 8 C-7 7.67 -7 7.34 -7 7 C-5.35 7 -3.7 7 -2 7 C-1.34 4.69 -0.68 2.38 0 0 Z " fill="#B33131" transform="translate(455,215)"/>
<path d="M0 0 C0 0.99 0 1.98 0 3 C0.99 3.33 1.98 3.66 3 4 C2.01 4.495 2.01 4.495 1 5 C0.67 5.66 0.34 6.32 0 7 C-2.375 6.3125 -2.375 6.3125 -5 5 C-6.3125 2.375 -6.3125 2.375 -7 0 C-4.3333581 -1.33332095 -2.83319697 -0.67102033 0 0 Z " fill="#C83030" transform="translate(453,131)"/>
<path d="M0 0 C4.10410755 -0.05796132 8.20811016 -0.09358313 12.3125 -0.125 C13.47974609 -0.14175781 14.64699219 -0.15851563 15.84960938 -0.17578125 C16.96787109 -0.18222656 18.08613281 -0.18867187 19.23828125 -0.1953125 C20.26993408 -0.20578613 21.30158691 -0.21625977 22.36450195 -0.22705078 C25 0 25 0 28 2 C26.34385343 2.38218767 24.67542976 2.71395102 23 3 C22.67 2.67 22.34 2.34 22 2 C20.36743242 1.84285346 18.72864662 1.74914586 17.08984375 1.68359375 C16.10048828 1.64169922 15.11113281 1.59980469 14.09179688 1.55664062 C13.05087891 1.51732422 12.00996094 1.47800781 10.9375 1.4375 C9.37032227 1.37272461 9.37032227 1.37272461 7.77148438 1.30664062 C5.18113116 1.20018775 2.59067814 1.0981724 0 1 C0 0.67 0 0.34 0 0 Z " fill="#A02F3E" transform="translate(461,76)"/>
<path d="M0 0 C1.125 1.6875 1.125 1.6875 2 4 C1.3409159 5.66967972 0.67349161 7.33607955 0 9 C0.30087716 12.22828237 0.30087716 12.22828237 1 15 C0.01 15 -0.98 15 -2 15 C-2.05406122 13.06280622 -2.09282025 11.12518079 -2.125 9.1875 C-2.14820313 8.10855469 -2.17140625 7.02960937 -2.1953125 5.91796875 C-2 3 -2 3 0 0 Z " fill="#9F1616" transform="translate(420,35)"/>
<path d="M0 0 C2 1 2 1 3.125 4.0625 C3.41375 5.031875 3.7025 6.00125 4 7 C3.67 7.33 3.34 7.66 3 8 C2.84417697 9.34015221 2.74955858 10.68758903 2.68359375 12.03515625 C2.62075195 13.24848633 2.62075195 13.24848633 2.55664062 14.48632812 C2.51732422 15.33646484 2.47800781 16.18660156 2.4375 17.0625 C2.39431641 17.91650391 2.35113281 18.77050781 2.30664062 19.65039062 C2.20023298 21.76672037 2.09958269 23.88333813 2 26 C1.67 26 1.34 26 1 26 C0.67 17.42 0.34 8.84 0 0 Z " fill="#9D2E2A" transform="translate(452,163)"/>
<path d="M0 0 C0.66 0 1.32 0 2 0 C2.66 1.98 3.32 3.96 4 6 C6.64 6.33 9.28 6.66 12 7 C8.5980513 9.09350689 5.94727588 9.17942163 2 9 C2 8.01 2 7.02 2 6 C1.34 6 0.68 6 0 6 C0 4.02 0 2.04 0 0 Z " fill="#BB2525" transform="translate(382,82)"/>
<path d="M0 0 C4.75 0.875 4.75 0.875 7 2 C7 2.99 7 3.98 7 5 C-1.57142857 5.28571429 -1.57142857 5.28571429 -5 3 C-3.35 2.67 -1.7 2.34 0 2 C0 1.34 0 0.68 0 0 Z " fill="#B23234" transform="translate(378,76)"/>
<path d="M0 0 C0.99 0.66 1.98 1.32 3 2 C2.34 2 1.68 2 1 2 C1 2.99 1 3.98 1 5 C-0.65 5.66 -2.3 6.32 -4 7 C-4.33 5.35 -4.66 3.7 -5 2 C-2.6875 0.875 -2.6875 0.875 0 0 Z " fill="#D72925" transform="translate(387,134)"/>
<path d="M0 0 C1.32 0.33 2.64 0.66 4 1 C4 2.98 4 4.96 4 7 C3.01 7.33 2.02 7.66 1 8 C0.87625 7.195625 0.7525 6.39125 0.625 5.5625 C0.315625 4.2940625 0.315625 4.2940625 0 3 C-0.66 2.67 -1.32 2.34 -2 2 C-1.34 2 -0.68 2 0 2 C0 1.34 0 0.68 0 0 Z " fill="#BD2020" transform="translate(485,79)"/>
<path d="M0 0 C1.32 0.33 2.64 0.66 4 1 C3.67 1.66 3.34 2.32 3 3 C3.66 3.33 4.32 3.66 5 4 C0.25 5.125 0.25 5.125 -2 4 C-1.34 2.68 -0.68 1.36 0 0 Z " fill="#B82E33" transform="translate(398,124)"/>
<path d="M0 0 C1.98 0.99 3.96 1.98 6 3 C4.68 4.32 3.36 5.64 2 7 C0.4375 5.75 0.4375 5.75 -1 4 C-0.6875 1.8125 -0.6875 1.8125 0 0 Z " fill="#C62821" transform="translate(383,272)"/>
<path d="M0 0 C0.99 0.495 0.99 0.495 2 1 C2.4140625 3.06640625 2.4140625 3.06640625 2.625 5.5625 C2.69976562 6.38878906 2.77453125 7.21507812 2.8515625 8.06640625 C2.92503906 9.02353516 2.92503906 9.02353516 3 10 C2.01 9.67 1.02 9.34 0 9 C0 6.03 0 3.06 0 0 Z " fill="#B71919" transform="translate(375,207)"/>
<path d="M0 0 C1.88343932 3.76687864 2.22057835 5.02958963 2 9 C2.66 9.33 3.32 9.66 4 10 C2.68 10 1.36 10 0 10 C0 6.7 0 3.4 0 0 Z " fill="#9F2925" transform="translate(375,254)"/>
<path d="M0 0 C0.66 0.33 1.32 0.66 2 1 C2 3.97 2 6.94 2 10 C1.34 10 0.68 10 0 10 C-0.19412181 8.52168779 -0.38012131 7.04230684 -0.5625 5.5625 C-0.66691406 4.73878906 -0.77132813 3.91507813 -0.87890625 3.06640625 C-0.91886719 2.38449219 -0.95882813 1.70257813 -1 1 C-0.67 0.67 -0.34 0.34 0 0 Z " fill="#AA2724" transform="translate(464,143)"/>
<path d="M0 0 C0.33 1.32 0.66 2.64 1 4 C1.99 4 2.98 4 4 4 C4 5.32 4 6.64 4 8 C2.68 8 1.36 8 0 8 C0 5.36 0 2.72 0 0 Z " fill="#B12625" transform="translate(418,75)"/>
<path d="M0 0 C0.66 0.33 1.32 0.66 2 1 C1.0409375 1.5878125 1.0409375 1.5878125 0.0625 2.1875 C-2.43778819 4.38472296 -2.64950425 5.75791433 -3 9 C-5 6 -5 6 -5 2 C-2.625 0.9375 -2.625 0.9375 0 0 Z " fill="#B72D2E" transform="translate(387,140)"/>
<path d="M0 0 C1.65 0.33 3.3 0.66 5 1 C4.67 1.99 4.34 2.98 4 4 C2.02 4.33 0.04 4.66 -2 5 C-1.34 3.35 -0.68 1.7 0 0 Z " fill="#BE2B29" transform="translate(462,140)"/>
<path d="M0 0 C0.33 0.66 0.66 1.32 1 2 C-1.64 2 -4.28 2 -7 2 C-7 1.34 -7 0.68 -7 0 C-4.30234372 -1.34882814 -2.84835666 -0.80338265 0 0 Z " fill="#CE3535" transform="translate(425,84)"/>
<path d="M0 0 C0.33 0 0.66 0 1 0 C1 2.31 1 4.62 1 7 C0.01 7 -0.98 7 -2 7 C-2 3.89448334 -1.4606285 2.64738916 0 0 Z " fill="#A01618" transform="translate(423,39)"/>
<path d="M0 0 C1.32 0 2.64 0 4 0 C4 1.98 4 3.96 4 6 C3.34 5.34 2.68 4.68 2 4 C1.34 4.66 0.68 5.32 0 6 C0 4.02 0 2.04 0 0 Z " fill="#981313" transform="translate(377,186)"/>
<path d="" fill="#000000" transform="translate(0,0)"/>
<path d="" fill="#000000" transform="translate(0,0)"/>
<path d="" fill="#000000" transform="translate(0,0)"/>
<path d="" fill="#000000" transform="translate(0,0)"/>
<path d="" fill="#000000" transform="translate(0,0)"/>
<path d="" fill="#000000" transform="translate(0,0)"/>
<path d="" fill="#000000" transform="translate(0,0)"/>
<path d="" fill="#000000" transform="translate(0,0)"/>
<path d="" fill="#000000" transform="translate(0,0)"/>
<path d="" fill="#000000" transform="translate(0,0)"/>
<path d="" fill="#000000" transform="translate(0,0)"/>
<path d="" fill="#000000" transform="translate(0,0)"/>
<path d="" fill="#000000" transform="translate(0,0)"/>
<path d="" fill="#000000" transform="translate(0,0)"/>
<path d="" fill="#000000" transform="translate(0,0)"/>
<path d="" fill="#000000" transform="translate(0,0)"/>
<path d="" fill="#000000" transform="translate(0,0)"/>
<path d="" fill="#000000" transform="translate(0,0)"/>
<path d="" fill="#000000" transform="translate(0,0)"/>
<path d="" fill="#000000" transform="translate(0,0)"/>
<path d="" fill="#000000" transform="translate(0,0)"/>
<path d="" fill="#000000" transform="translate(0,0)"/>
<path d="" fill="#000000" transform="translate(0,0)"/>
<path d="" fill="#000000" transform="translate(0,0)"/>
<path d="" fill="#000000" transform="translate(0,0)"/>
<path d="" fill="#000000" transform="translate(0,0)"/>
<path d="" fill="#000000" transform="translate(0,0)"/>
<path d="" fill="#000000" transform="translate(0,0)"/>
<path d="" fill="#000000" transform="translate(0,0)"/>
<path d="" fill="#000000" transform="translate(0,0)"/>
<path d="" fill="#000000" transform="translate(0,0)"/>
<path d="" fill="#000000" transform="translate(0,0)"/>
<path d="" fill="#000000" transform="translate(0,0)"/>
<path d="" fill="#000000" transform="translate(0,0)"/>
<path d="" fill="#000000" transform="translate(0,0)"/>
<path d="" fill="#000000" transform="translate(0,0)"/>
<path d="" fill="#000000" transform="translate(0,0)"/>
<path d="" fill="#000000" transform="translate(0,0)"/>
<path d="" fill="#000000" transform="translate(0,0)"/>
<path d="" fill="#000000" transform="translate(0,0)"/>
<path d="" fill="#000000" transform="translate(0,0)"/>
<path d="" fill="#000000" transform="translate(0,0)"/>
<path d="" fill="#000000" transform="translate(0,0)"/>
<path d="" fill="#000000" transform="translate(0,0)"/>
<path d="" fill="#000000" transform="translate(0,0)"/>
<path d="" fill="#000000" transform="translate(0,0)"/>
<path d="" fill="#000000" transform="translate(0,0)"/>
<path d="" fill="#000000" transform="translate(0,0)"/>
<path d="" fill="#000000" transform="translate(0,0)"/>
<path d="" fill="#000000" transform="translate(0,0)"/>
<path d="" fill="#000000" transform="translate(0,0)"/>
<path d="" fill="#000000" transform="translate(0,0)"/>
<path d="" fill="#000000" transform="translate(0,0)"/>
<path d="" fill="#000000" transform="translate(0,0)"/>
<path d="" fill="#000000" transform="translate(0,0)"/>
<path d="" fill="#000000" transform="translate(0,0)"/>
<path d="" fill="#000000" transform="translate(0,0)"/>
<path d="" fill="#000000" transform="translate(0,0)"/>
<path d="" fill="#000000" transform="translate(0,0)"/>
<path d="" fill="#000000" transform="translate(0,0)"/>
<path d="" fill="#000000" transform="translate(0,0)"/>
<path d="" fill="#000000" transform="translate(0,0)"/>
<path d="" fill="#000000" transform="translate(0,0)"/>
<path d="" fill="#000000" transform="translate(0,0)"/>
<path d="" fill="#000000" transform="translate(0,0)"/>
<path d="" fill="#000000" transform="translate(0,0)"/>
<path d="" fill="#000000" transform="translate(0,0)"/>
<path d="" fill="#000000" transform="translate(0,0)"/>
<path d="" fill="#000000" transform="translate(0,0)"/>
<path d="" fill="#000000" transform="translate(0,0)"/>
<path d="" fill="#000000" transform="translate(0,0)"/>
<path d="" fill="#000000" transform="translate(0,0)"/>
<path d="" fill="#000000" transform="translate(0,0)"/>
<path d="" fill="#000000" transform="translate(0,0)"/>
<path d="" fill="#000000" transform="translate(0,0)"/>
<path d="" fill="#000000" transform="translate(0,0)"/>
<path d="" fill="#000000" transform="translate(0,0)"/>
<path d="" fill="#000000" transform="translate(0,0)"/>
<path d="" fill="#000000" transform="translate(0,0)"/>
<path d="" fill="#000000" transform="translate(0,0)"/>
<path d="" fill="#000000" transform="translate(0,0)"/>
<path d="" fill="#000000" transform="translate(0,0)"/>
<path d="" fill="#000000" transform="translate(0,0)"/>
<path d="" fill="#000000" transform="translate(0,0)"/>
<path d="" fill="#000000" transform="translate(0,0)"/>
<path d="" fill="#000000" transform="translate(0,0)"/>
<path d="" fill="#000000" transform="translate(0,0)"/>
<path d="" fill="#000000" transform="translate(0,0)"/>
</svg>
