<?xml version="1.0" standalone="no"?>
<!DOCTYPE svg PUBLIC "-//W3C//DTD SVG 20010904//EN"
 "http://www.w3.org/TR/2001/REC-SVG-20010904/DTD/svg10.dtd">
<svg version="1.0" xmlns="http://www.w3.org/2000/svg"
 width="1408.000000pt" height="1536.000000pt" viewBox="0 0 1408.000000 1536.000000"
 preserveAspectRatio="xMidYMid meet">
<metadata>
Created by potrace 1.16, written by Peter Selinger 2001-2019
</metadata>
<g transform="translate(0.000000,1536.000000) scale(0.100000,-0.100000)"
fill="#000000" stroke="none">
<path d="M6571 9517 c-28 -14 -147 -230 -136 -247 8 -13 96 -13 129 0 14 5 34
27 47 52 12 24 27 46 32 50 6 4 215 7 463 7 391 0 454 -2 465 -15 20 -25 109
-207 104 -213 -3 -2 -519 -5 -1148 -6 -817 -1 -1148 -5 -1163 -13 -11 -6 -51
-56 -88 -111 -37 -56 -73 -101 -79 -101 -7 0 -187 -1 -402 -3 -416 -3 -445 -7
-445 -51 -1 -53 48 -50 -877 -51 l-858 -1 -36 33 c-62 58 -81 61 -535 61 -404
1 -412 1 -430 -19 -17 -19 -19 -44 -22 -286 -2 -146 -1 -281 3 -300 11 -62 22
-64 478 -61 l402 3 49 25 c26 13 56 35 66 47 l18 23 860 0 860 0 13 -37 c7
-21 19 -43 28 -50 11 -9 78 -12 233 -13 l216 0 94 -63 c51 -34 122 -81 158
-105 163 -105 202 -134 194 -142 -5 -5 -198 -10 -429 -12 l-420 -3 -55 -27
c-30 -15 -89 -41 -130 -58 -86 -36 -70 -28 -259 -115 -80 -37 -190 -86 -245
-110 -184 -79 -221 -95 -237 -104 -9 -5 -55 -26 -103 -45 -220 -91 -360 -175
-478 -288 -123 -117 -118 -143 50 -243 55 -33 104 -63 107 -67 4 -4 11 -44 16
-90 5 -46 11 -94 14 -108 2 -14 7 -44 10 -67 14 -100 77 -233 143 -304 36 -40
54 -52 327 -231 172 -112 300 -189 380 -229 l50 -24 2375 0 2375 0 85 46 c47
25 126 72 175 104 223 145 351 230 363 242 7 7 17 13 22 13 4 0 35 27 69 61
103 102 157 236 191 474 6 44 13 90 16 102 3 14 36 40 108 82 161 94 147 40
144 537 -3 367 -5 425 -19 439 -13 14 -139 16 -1142 18 -761 1 -1129 5 -1136
12 -8 8 72 53 258 148 l269 136 305 1 c272 1 308 3 327 18 20 17 20 23 18 441
l-3 424 -28 21 c-27 20 -38 21 -479 21 -391 0 -452 2 -458 15 -70 150 -153
301 -181 331 l-36 39 -514 0 c-386 0 -520 -4 -538 -13z m2078 -527 c11 -6 23
-564 13 -602 -4 -17 -26 -18 -274 -18 l-270 0 -282 -144 c-154 -79 -334 -172
-399 -207 -65 -35 -133 -72 -150 -81 -29 -16 -99 -17 -868 -17 l-837 -1 -148
97 c-82 52 -192 123 -244 157 -52 34 -119 77 -148 95 -34 21 -51 39 -48 47 3
8 36 59 73 115 78 116 240 364 257 394 23 40 89 140 103 157 14 16 123 17
1613 16 879 0 1603 -4 1609 -8z m-3559 -233 c0 -8 -12 -27 -150 -239 l-83
-128 -183 0 c-101 0 -184 3 -185 8 -1 4 -2 85 -3 180 -2 130 1 175 10 180 17
10 594 9 594 -1z m-2620 -17 c19 -19 22 -40 22 -140 0 -145 -2 -157 -28 -184
l-27 -26 -348 0 -349 0 -1 158 c0 86 -3 169 -5 185 l-5 27 361 0 c347 0 361
-1 380 -20z m1868 -162 l3 -88 -851 0 -850 0 0 84 c0 58 4 86 13 89 6 3 388 4
847 3 l835 -1 3 -87z m5442 -1095 c0 -161 -3 -293 -8 -293 -4 0 -30 19 -57 42
-28 22 -81 62 -120 87 l-70 46 -2920 2 c-1606 1 -2942 2 -2968 3 -27 0 -46 4
-43 9 3 5 50 28 103 51 54 23 125 55 158 70 33 15 94 42 135 60 153 66 296
130 395 175 33 16 80 31 105 34 25 3 1225 6 2668 6 l2622 0 0 -292z m-246
-303 c32 -19 81 -56 109 -81 l51 -45 -127 -80 c-69 -43 -156 -97 -192 -119
-71 -43 -155 -95 -245 -153 -30 -19 -71 -45 -90 -57 -19 -12 -55 -34 -79 -49
-74 -47 -214 -132 -277 -167 l-59 -33 -2255 -1 -2255 0 -55 30 c-30 17 -74 43
-97 58 -24 15 -47 27 -53 27 -5 0 -10 4 -10 8 0 4 -12 13 -27 20 -16 7 -55 30
-88 51 -33 22 -136 86 -230 142 -93 57 -213 131 -265 164 -52 33 -132 83 -177
110 -46 27 -83 54 -83 61 0 30 140 129 203 144 18 5 1429 7 3137 7 l3106 -2
58 -35z m-6236 -469 c22 -16 80 -53 129 -81 48 -28 120 -70 158 -94 208 -128
338 -205 409 -241 l79 -40 2301 0 2301 0 84 43 c46 24 136 76 200 116 64 40
145 90 181 112 36 21 67 41 70 44 3 3 21 14 40 24 19 11 79 48 132 83 98 64
118 73 118 51 -1 -29 -31 -154 -49 -203 -24 -64 -73 -145 -98 -162 -191 -131
-535 -354 -588 -381 l-70 -37 -2307 -1 c-1944 -1 -2313 1 -2348 13 -40 14
-256 140 -380 223 -8 5 -77 51 -152 100 -75 50 -150 106 -166 125 -27 34 -75
154 -86 220 -14 77 -16 115 -8 115 5 0 27 -13 50 -29z"/>
</g>
</svg>
